<svg width="124" height="138" fill="none" xmlns="http://www.w3.org/2000/svg"><path d="M104.067 89.4337c-.874-.8366-2.031-1.292-3.227-1.2704-1.1953.0217-2.3359.5187-3.1814 1.3865-.8455.8677-1.3298 2.0384-1.3509 3.2653-.0211 1.227.4227 2.4145 1.2378 3.3123.7162.7332 1.2845 1.6043 1.6722 2.5633.3877.959.5873 1.9873.5873 3.0253s-.1996 2.066-.5873 3.025c-.3877.959-.956 1.83-1.6722 2.564-.8151.897-1.2589 2.085-1.2378 3.312.0211 1.227.5054 2.398 1.3509 3.265.8455.868 1.9861 1.365 3.1814 1.387 1.196.021 2.353-.434 3.227-1.271 3.168-3.261 4.946-7.677 4.946-12.282 0-4.6045-1.778-9.0213-4.946-12.2823Z" fill="url(#a)"/><path d="M113.419 79.2999c-.974-.8571-2.262-1.3238-3.594-1.3016-1.331.0222-2.601.5315-3.542 1.4206-.942.889-1.481 2.0885-1.504 3.3457-.024 1.2571.47 2.4738 1.378 3.3937 4.476 4.2443 6.99 9.9907 6.99 15.9817 0 5.99-2.514 11.737-6.99 15.981-.908.92-1.402 2.136-1.378 3.394.023 1.257.562 2.456 1.504 3.345.941.889 2.211 1.399 3.542 1.421 1.332.022 2.62-.445 3.594-1.302 6.401-6.064 9.995-14.277 9.995-22.839 0-8.5629-3.594-16.7761-9.995-22.8401Z" fill="url(#b)"/><path d="M80.5673 18.7014H19.7142C9.15 18.7014.58606 27.2853.58606 37.8741v70.9289c0 10.589 8.56394 19.173 19.12814 19.173h60.8531c10.5641 0 19.1281-8.584 19.1281-19.173V37.8741c0-10.5888-8.564-19.1727-19.1281-19.1727Z" fill="#333"/><path d="M96.9971 89.4211c-.9843.9076-1.5372 2.1379-1.5372 3.4207 0 1.2827.5529 2.513 1.5372 3.4206.8158.7494 1.4631 1.6396 1.9048 2.6197.4416.9802.6689 2.0309.6689 3.0919s-.2273 2.112-.6689 3.092c-.4417.98-1.089 1.871-1.9048 2.62-.9843.908-1.5372 2.138-1.5372 3.421 0 1.282.5529 2.513 1.5372 3.42.3569.298.7581.548 1.1914.742.997-2.243 1.5088-4.643 1.5068-7.067V88.1626c-1.0166.1595-1.9571.5982-2.6982 1.2585Z" fill="url(#c)"/><path d="m69.4106 54.1159-6.3684-5.8214c-1.4984-1.5524-4.1207-1.1643-5.2445.3881L39.8166 70.804l-10.4891-9.3143c-1.4984-1.1643-4.1206-1.1643-5.2445.3881l-5.6191 6.9857c-1.4984 1.5524-1.1238 4.2691.3746 5.4333L38.3181 91.373c.7492.7762 1.8731 1.1643 2.9969.7762 1.1238 0 2.2476-.3881 2.6222-1.5524l25.4734-31.0475c1.873-1.5524 1.4984-4.2691 0-5.4334Z" fill="url(#d)"/><path d="m80.1927 54.0788-6.3684-5.8214c-1.4984-1.5524-4.1206-1.1643-5.2445.3881L50.5986 70.7669l-10.489-9.3143c-1.4984-1.1643-4.1207-1.1643-5.2445.7762l-5.6191 6.5976c-1.1238 1.5524-1.1238 4.2691.3746 5.4333l19.4796 17.0762c.7492.7762 1.873 1.1643 2.9969.7762 1.1238 0 2.2476-.3881 2.6222-1.5524l25.4734-31.0476c1.873-1.5523 1.4984-3.8809 0-5.4333Z" fill="url(#e)"/><path d="M99.6954 39.0315h5.2806c.53 0 1.055.1108 1.545.326s.935.5306 1.31.9283c.375.3977.672.8698.875 1.3894.203.5195.307 1.0764.307 1.6388v21.0831c0 1.1358-.425 2.225-1.182 3.0282-.758.8031-1.785 1.2543-2.855 1.2543h-5.2806V39.0315Z" fill="url(#f)"/><path d="M74.4945 3.17142c0-.82376-.3421-1.61378-.9511-2.196267-.609-.582486-1.4349-.9097233-2.2961-.9097233H28.9367c-.8612 0-1.6872.3272373-2.2961.9097233-.609.582487-.9511 1.372507-.9511 2.196267-.0027 4.14128-1.0145 8.22498-2.9549 11.92698l-1.8184 3.603h58.449l-1.9158-3.6962c-1.9258-3.6739-2.9371-7.724-2.9549-11.83378Z" fill="url(#g)"/><path d="M31.8916 137.294h36.4982c1.8973-.029 3.7483-.564 5.3437-1.547 1.5954-.983 2.8713-2.373 3.6834-4.013l1.9483-3.758h-58.449l1.9158 3.696c.8053 1.656 2.0823 3.063 3.6846 4.057 1.6024.994 3.4652 1.537 5.375 1.565Z" fill="url(#h)"/><path d="M102.237 39.0315h-2.5416v29.6481h2.5416V39.0315Z" fill="url(#i)"/><defs><linearGradient id="a" x1="270.002" y1="1015.22" x2="374.448" y2="1015.22" gradientUnits="userSpaceOnUse"><stop stop-color="#87C5FC" stop-opacity=".384001"/><stop offset=".52" stop-color="#CCE2E6"/><stop offset="1" stop-color="#8FA1BB"/></linearGradient><linearGradient id="b" x1="359.531" y1="1729.31" x2="512.719" y2="1729.31" gradientUnits="userSpaceOnUse"><stop stop-color="#87C5FC" stop-opacity=".384001"/><stop offset=".52" stop-color="#CCE2E6"/><stop offset="1" stop-color="#8FA1BB"/></linearGradient><linearGradient id="c" x1="153.358" y1="1015.22" x2="188.174" y2="1015.22" gradientUnits="userSpaceOnUse"><stop stop-color="#87C5FC" stop-opacity=".384001"/><stop offset=".52" stop-color="#CCE2E6"/><stop offset="1" stop-color="#8FA1BB"/></linearGradient><linearGradient id="d" x1="44.0944" y1="47.3063" x2="44.0944" y2="92.3014" gradientUnits="userSpaceOnUse"><stop stop-color="#1792C7"/><stop offset="1" stop-color="#00B8F0"/></linearGradient><linearGradient id="e" x1="54.9529" y1="47.2692" x2="54.9529" y2="92.2643" gradientUnits="userSpaceOnUse"><stop stop-color="#00B8F0"/><stop offset=".0001" stop-color="#00B8F0"/><stop offset=".739583" stop-color="#B2EEFC"/></linearGradient><linearGradient id="f" x1="475.303" y1="617.169" x2="388.925" y2="617.169" gradientUnits="userSpaceOnUse"><stop stop-color="#fff"/><stop offset=".52" stop-color="#CCE2E6"/><stop offset="1" stop-color="#8FA1BB"/></linearGradient><linearGradient id="g" x1="50.1407" y1=".0654297" x2="50.1407" y2="18.7014" gradientUnits="userSpaceOnUse"><stop stop-color="#00B8F0"/><stop offset=".0001" stop-color="#00B8F0"/><stop offset=".739583" stop-color="#B2EEFC"/></linearGradient><linearGradient id="h" x1="50.1407" y1="127.976" x2="50.1407" y2="137.294" gradientUnits="userSpaceOnUse"><stop stop-color="#00B8F0"/><stop offset=".0001" stop-color="#00B8F0"/><stop offset=".739583" stop-color="#B2EEFC"/></linearGradient><linearGradient id="i" x1="218.067" y1="617.169" x2="176.899" y2="617.169" gradientUnits="userSpaceOnUse"><stop stop-color="#fff"/><stop offset=".52" stop-color="#CCE2E6"/><stop offset="1" stop-color="#8FA1BB"/></linearGradient></defs></svg>