<svg width="228" height="139" fill="none" xmlns="http://www.w3.org/2000/svg"><rect x="77.1947" y="28.5774" width="44.5449" height="21.2623" rx="3" transform="rotate(-17.133 77.1947 28.5774)" fill="url(#a)"/><ellipse cx="101.015" cy="32.1736" rx="7.23397" ry="6.98478" transform="rotate(-17.133 101.015 32.1736)" fill="#fff"/><rect x="26.874" y="28.4994" width="93.5453" height="44.6514" rx="3" transform="rotate(36.036 26.874 28.4994)" fill="url(#b)"/><ellipse cx="50.8151" cy="73.0653" rx="15.1915" ry="14.6682" transform="rotate(36.036 50.8151 73.0653)" fill="#fff"/><rect x="106.506" y="105.899" width="73.1266" height="34.9051" rx="3" transform="rotate(-19.34 106.506 105.899)" fill="url(#c)"/><ellipse cx="145.808" cy="110.293" rx="11.8756" ry="11.4665" transform="rotate(-19.34 145.808 110.293)" fill="#fff"/><path d="m196.492 12.999-9.021-8.2242c-2.123-2.19312-5.838-1.64484-7.43.54828L154.569 36.575 139.71 23.4163c-2.123-1.6448-5.837-1.6448-7.429.5483l-7.961 9.869c-2.122 2.1931-1.592 6.0311.531 7.6759l27.595 24.1243c1.062 1.0966 2.654 1.6448 4.246 1.0966 1.592 0 3.184-.5483 3.714-2.1931l36.086-43.8624c2.654-2.1931 2.123-6.0311 0-7.6759Z" fill="url(#d)"/><path d="m211.766 12.9466-9.021-8.22417c-2.123-2.19312-5.837-1.64484-7.429.54828L169.843 36.5226l-14.859-13.1587c-2.123-1.6448-5.837-1.6448-7.429 1.0966l-7.96 9.3207c-1.592 2.1932-1.592 6.0311.53 7.676l27.595 24.1242c1.062 1.0966 2.654 1.6449 4.246 1.0966 1.592 0 3.184-.5483 3.715-2.1931l36.085-43.8624c2.654-2.1931 2.123-5.4828 0-7.6759Z" fill="url(#e)"/><defs><linearGradient id="a" x1="99.4671" y1="28.5774" x2="99.4671" y2="49.8397" gradientUnits="userSpaceOnUse"><stop stop-color="#6FC7A1"/><stop offset="1" stop-color="#DBFBDF"/></linearGradient><linearGradient id="b" x1="73.6467" y1="28.4994" x2="73.6467" y2="73.1508" gradientUnits="userSpaceOnUse"><stop stop-color="#6FC7A1"/><stop offset="1" stop-color="#DBFBDF"/></linearGradient><linearGradient id="c" x1="143.069" y1="105.899" x2="143.069" y2="140.804" gradientUnits="userSpaceOnUse"><stop stop-color="#6FC7A1"/><stop offset="1" stop-color="#DBFBDF"/></linearGradient><linearGradient id="d" x1="160.629" y1="3.37866" x2="160.629" y2="66.9455" gradientUnits="userSpaceOnUse"><stop stop-color="#1792C7"/><stop offset="1" stop-color="#00B8F0"/></linearGradient><linearGradient id="e" x1="176.011" y1="3.32629" x2="176.011" y2="66.8931" gradientUnits="userSpaceOnUse"><stop stop-color="#00B8F0"/><stop offset=".0001" stop-color="#00B8F0"/><stop offset=".739583" stop-color="#B2EEFC"/></linearGradient></defs></svg>