<svg width="82" height="55" fill="none" xmlns="http://www.w3.org/2000/svg"><path fill-rule="evenodd" clip-rule="evenodd" d="M39.0001 16.8524 39 45.08c0 2.7259 2.2098 4.9356 4.9356 4.9356h26.6872c2.7258 0 4.9356-2.2097 4.9356-4.9356l.0001-35.0445c0-2.72589-2.2098-4.93564-4.9357-4.93565H50.7526L39.0001 16.8524Z" fill="url(#a)"/><rect x="43.5956" y="30" width="27.3673" height="15.5135" rx="3" fill="#fff"/><path d="m52.8281 35.7618 1.0186-.8063c-.1486-.191-.3289-.3608-.5411-.5093-.2122-.138-.4457-.2547-.6791-.3502-.244-.0954-.4987-.1697-.7533-.2122-.2652-.0424-.5199-.0742-.7533-.0742-.5836 0-1.1247.0955-1.6127.2758-.4987.191-.9337.4457-1.2944.7852-.3608.3395-.6473.7533-.8595 1.2413-.2122.4881-.3076 1.0292-.3076 1.6234 0 .5941.0954 1.1246.297 1.6127.191.4881.4669.9018.8276 1.252.3501.3501.7745.626 1.2626.8169.4881.191 1.0292.2865 1.6233.2865.6366 0 1.199-.1061 1.687-.3395.4775-.2334.8807-.5517 1.2202-.9761l-1.0716-.7533c-.191.2652-.4457.4774-.7533.6366-.3183.1591-.6685.2334-1.0717.2334-.3925 0-.7427-.0637-1.0503-.2016-.3183-.1273-.5836-.3183-.8064-.5623-.2228-.2441-.3926-.5411-.5093-.8807-.1273-.3395-.1804-.7108-.1804-1.1246 0-.382.0531-.7427.1804-1.0822.1273-.329.2971-.6154.5305-.8701.2334-.244.5093-.435.8276-.5835.3183-.1379.6684-.2122 1.061-.2122.2971 0 .6154.0636.9337.191.3183.1273.5729.3183.7745.5835Z" fill="url(#b)"/><path d="m58.8858 35.5708.87-.9549c-.2971-.2652-.6366-.4668-1.0292-.6047-.3926-.1274-.7745-.2016-1.1565-.2016-.3395 0-.679.053-1.0079.1379-.3289.0849-.626.2228-.8807.4032-.2546.1804-.4668.4032-.6259.679-.1592.2759-.2335.6048-.2335.9868 0 .3607.0531.6578.1698.8912.1061.2334.2546.435.435.5942.1804.1697.382.297.6154.3925.2228.1061.4456.191.679.2547l.6685.2228c.2122.0742.3925.1591.5517.2546.1485.0955.2758.2122.3713.3395.0849.1274.138.2971.138.4881 0 .2122-.0425.382-.1274.5199-.0848.1379-.1909.2546-.3183.3395-.1273.0955-.2758.1592-.435.2016-.1697.0424-.3289.053-.4774.053-.2971 0-.6048-.0742-.9125-.2228-.3077-.1485-.5517-.3501-.7321-.6047l-.9549.8912c.2971.3607.6791.626 1.1459.8064.4668.1803.9443.2652 1.4324.2652.3607 0 .7108-.0424 1.0503-.1485.329-.0955.6154-.2441.8701-.4456.244-.191.4456-.4457.5941-.7427.1486-.2971.2228-.6579.2228-1.061 0-.3608-.0742-.6685-.2122-.9231-.1379-.244-.3183-.4456-.5305-.6154-.2122-.1591-.4562-.2865-.7108-.3926-.2547-.0955-.5093-.1803-.7427-.2652-.2122-.0637-.4138-.1273-.5836-.191-.1804-.0637-.3289-.1379-.4562-.2228-.1273-.0849-.2228-.1804-.2865-.3077-.0743-.1167-.1061-.2652-.1061-.435 0-.1804.0318-.3395.1167-.4668.0849-.1274.191-.2335.3183-.3183.1273-.0849.2653-.138.4244-.1804.1486-.0425.3077-.0637.4669-.0637.2546 0 .5199.0637.7745.191.2546.1273.4562.2759.6048.4562Z" fill="url(#c)"/><path d="m60.3722 34.0006 2.9708 7.5118h1.1565l3.0133-7.5118h-1.443l-2.0902 5.7824h-.0424l-2.0689-5.7824h-1.4961Z" fill="url(#d)"/><path fill-rule="evenodd" clip-rule="evenodd" d="M38.9439 16.7876 50.7476 4.98386l.0023.01116V11.852c0 2.7258-2.2098 4.9356-4.9357 4.9356h-6.8703Z" fill="url(#e)"/><path d="M12 20.6182v14m-7-7h14" stroke="url(#f)" stroke-width="2" stroke-linecap="round" stroke-linejoin="round"/><defs><linearGradient id="a" x1="57.2792" y1="5.09985" x2="57.2792" y2="50.0156" gradientUnits="userSpaceOnUse"><stop stop-color="#00B8F0"/><stop offset=".0001" stop-color="#00B8F0"/><stop offset=".739583" stop-color="#B2EEFC"/></linearGradient><linearGradient id="b" x1="57.2792" y1="33.8096" x2="57.2792" y2="41.7034" gradientUnits="userSpaceOnUse"><stop stop-color="#F86CA2"/><stop offset="1" stop-color="#FA9EC2"/></linearGradient><linearGradient id="c" x1="57.2792" y1="33.8096" x2="57.2792" y2="41.7034" gradientUnits="userSpaceOnUse"><stop stop-color="#F86CA2"/><stop offset="1" stop-color="#FA9EC2"/></linearGradient><linearGradient id="d" x1="57.2792" y1="33.8096" x2="57.2792" y2="41.7034" gradientUnits="userSpaceOnUse"><stop stop-color="#F86CA2"/><stop offset="1" stop-color="#FA9EC2"/></linearGradient><linearGradient id="e" x1="44.8469" y1="16.7876" x2="44.8469" y2="4.98381" gradientUnits="userSpaceOnUse"><stop stop-color="#1792C7"/><stop offset="1" stop-color="#00B8F0"/></linearGradient><linearGradient id="f" x1="12" y1="20.6182" x2="12" y2="34.6182" gradientUnits="userSpaceOnUse"><stop stop-color="#1792C7"/><stop offset="1" stop-color="#00B8F0"/></linearGradient></defs></svg>