<svg width="73" height="74" fill="none" xmlns="http://www.w3.org/2000/svg"><path d="M60.6976 33.0625 41.8501 9.29017c-.3594-.45303-.7615-.84742-1.1951-1.18311-1.2042-.93267-2.652-1.41192-4.1065-1.43774-.0414-.00074-.0828-.00111-.1242-.00111-2.0197-.00001-4.0395.87404-5.4255 2.62214L12.1508 33.0623l24.2734 24.8998 24.2734-24.8996Z" fill="url(#a)"/><path d="M17.6939 13.4114h36.5947v45.4992H17.6939V13.4114Z" fill="#fff"/><path d="M36.4242 53.6779 12.1508 33.0625v26.6968c0 3.6198 2.9344 6.5542 6.5541 6.5542h35.4387c3.6197 0 6.5541-2.9344 6.5541-6.5542V33.0625L36.4242 53.6779Z" fill="url(#b)"/><path d="M43.7392 33.5717c-.12.3008-.4235.9301-1.0882 1.328-.226.1353-.6037.2832-1.0826.2832-.2576 0-.457-.1615-.5528-.258-.2294-.2305-.3654-.5704-.3639-.9091l.0133-2.6932c.002-.0716.0044-.1431.0044-.2152 0-.0454-.0018-.09-.0026-.1349l.0298-6.0396-2.1657-.0107-.007 1.4331c-.6996-.4988-1.537-.7789-2.4628-.7789-2.4082 0-4.8991 2.0792-4.8991 5.559 0 3.1722 2.1543 5.7528 4.8023 5.7528 1.1181 0 2.1326-.4572 2.9316-1.2295.1551.2911.3512.5597.5845.7941.575.5778 1.3166.896 2.088.896 2.2112 0 3.6108-1.5377 4.1832-2.9767.8807-2.2138 1.0388-4.0805.5124-6.0522-.0031-.0111-.0062-.0223-.0096-.0335-.7958-2.6368-2.5761-4.7957-5.0133-6.0791-2.4367-1.2833-5.225-1.5299-7.8514-.6936-2.4889.792-4.5593 2.5001-5.8301 4.809-1.2713 2.3097-1.6056 4.9725-.9414 7.4982 1.1464 4.3587 5.0881 7.4899 9.5857 7.6142l1.0825.0299.0597-2.1649-1.0824-.0299c-3.5425-.098-6.6476-2.5653-7.5511-6.0002-.5221-1.9859-.2579-4.0823.7441-5.9031 1.002-1.8205 2.6321-3.1664 4.5898-3.7896 2.0691-.6585 4.266-.4648 6.1852.5461 1.3048.6872 2.1034 1.563 2.4583 1.9931.8793 1.0659 1.2891 2.1271 1.4845 2.7743.1533.4834.3459 1.3015.2629 2.3176-.0889 1.0869-.4529 1.9061-.6982 2.3633Zm-7.7748 1.151c-1.2679 0-2.6365-1.3715-2.6365-3.5872 0-2.124 1.3898-3.3932 2.7334-3.3932 1.4162 0 2.4097 1.3433 2.4396 3.2765l-.0014.2927c-.0745 1.8988-1.1828 3.4112-2.5351 3.4112Z" fill="url(#c)"/><path d="M43.7401 33.5722c-.1203.3013-.4242.9305-1.0894 1.3284-.2262.1353-.6037.2823-1.0823.2823-.257 0-.4575-.1612-.5528-.258-.2294-.2305-.3654-.5704-.3639-.9091l.0449-9.0829-2.1657-.0107-.0073 1.4338c-.6064-.4331-1.3182-.7017-2.0993-.7652v2.1816c1.22.2094 2.0502 1.4814 2.0762 3.2457l-.001.2934c-.065 1.6777-.9389 3.0548-2.0752 3.3508v2.1989c.9356-.1054 1.7844-.5369 2.4716-1.2025.1545.2916.3506.5602.5845.7941.575.5778 1.3166.896 2.088.896 2.2119 0 3.6114-1.5372 4.1832-2.9767.8807-2.2134 1.0394-4.0799.5124-6.0522-.0029-.0115-.0059-.022-.0102-.0335-.7956-2.6364-2.5758-4.7963-5.0129-6.0799-1.5103-.7955-3.1577-1.1926-4.8166-1.1796v2.1657c1.3124-.0115 2.6133.3018 3.8073.9298 1.3195.6941 2.1271 1.5871 2.4874 2.0289.8594 1.0538 1.2623 2.0984 1.4557 2.7386.1444.5413.3069 1.4173.1906 2.4867-.1046.961-.3945 1.7131-.6252 2.1956Zm-7.3158 7.8688.862.0231.0606-2.1643-.9226-.026v2.1672Z" fill="url(#d)"/><defs><linearGradient id="a" x1="36.4242" y1="6.66821" x2="36.4242" y2="57.9621" gradientUnits="userSpaceOnUse"><stop stop-color="#00B8F0"/><stop offset=".0001" stop-color="#00B8F0"/><stop offset=".739583" stop-color="#B2EEFC"/></linearGradient><linearGradient id="b" x1="36.4242" y1="33.0625" x2="36.4242" y2="66.3135" gradientUnits="userSpaceOnUse"><stop stop-color="#1792C7"/><stop offset="1" stop-color="#00B8F0"/></linearGradient><linearGradient id="c" x1="36.4251" y1="21.0266" x2="36.4251" y2="41.465" gradientUnits="userSpaceOnUse"><stop stop-color="#F86CA2"/><stop offset="1" stop-color="#FA9EC2"/></linearGradient><linearGradient id="d" x1="36.4251" y1="21.0266" x2="36.4251" y2="41.465" gradientUnits="userSpaceOnUse"><stop stop-color="#F86CA2"/><stop offset="1" stop-color="#FA9EC2"/></linearGradient></defs></svg>