<svg width="73" height="73" fill="none" xmlns="http://www.w3.org/2000/svg"><path d="M34.9376 47.1003c.0687-.0018.1377-.0026.2069-.0026 4.4058 0 7.9771 3.5586 7.9771 7.9485 0 1.6463-.5022 3.1756-1.3623 4.4442-.8354 1.2322-2.0085 2.2184-3.3869 2.8268-.9869.4356-2.079.6776-3.2279.6776-4.4058 0-7.9771-3.5586-7.9771-7.9485 0-4.3211 3.46-7.8367 7.7702-7.946Z" fill="url(#a)"/><path d="M35.1478 4.62402c2.208-.00084 4.1837 1.54659 4.6355 3.78677.5144 2.55251-1.1447 5.03771-3.7064 5.55061-.1308.0261-.2615.0467-.3917.0617-2.42.28-4.6905-1.3325-5.1792-3.7552-.5149-2.55256 1.1447-5.03768 3.7064-5.55058.314-.06286.627-.09318.9354-.0933Z" fill="url(#b)"/><path d="m57.7405 44.3237 1.2362 1.0268c1.2908 1.0723 2.1049 2.596 2.2883 4.2422.0262.2351.0395.4728.0395.712 0-.0001 0 .0001 0 0l.0001.0647c0 .0274-.0002.0547-.0006.082-.0007.0526-.002.1049-.0039.1571-.1262 3.4121-2.9421 6.1397-6.3977 6.1397H15.3868c-3.536 0-6.40218-2.8559-6.40218-6.3788 0-1.9504.88594-3.7961 2.40948-5.0206l1.2694-1.0206c2.9363-2.3596 4.6438-5.9167 4.6438-9.6755v-6.7039c0-8.8759 6.4795-16.2434 14.9825-17.6625.9726-.1628 1.9717-.2477 2.9909-.2477 9.616 0 17.4687 7.5252 17.9501 16.9877.0077.1526.0136.3057.0175.4593.0039.154.0059.3084.0059.4632v6.8279c0 .0285.0001.057.0003.0855.0014.2015.0077.4024.0188.6026.191 3.432 1.8021 6.6443 4.4672 8.8589Z" fill="url(#c)"/><path d="M62.6732 18.0273c0-5.9675-4.8374-10.80513-10.8049-10.80513S41.063 12.0598 41.063 18.0273c0 5.9674 4.8378 10.805 10.8053 10.805 5.9675 0 10.8049-4.8376 10.8049-10.805Z" fill="url(#d)"/><path d="M52.0738 22.9389c-.4291 0-.7769-.3287-.7769-.7344v-7.0837l-.2897.2502c-.317.2733-.8084.252-1.0973-.0479-.289-.2996-.2665-.7642.0506-1.0375l1.5898-1.3707c.2275-.1959.5554-.2467.8372-.1292.2815.1175.4629.3808.4629.6719v8.7469c0 .4057-.3478.7344-.7766.7344Z" fill="#fff"/><defs><linearGradient id="a" x1="35.1445" y1="47.0977" x2="35.1445" y2="62.9948" gradientUnits="userSpaceOnUse"><stop stop-color="#1792C7"/><stop offset="1" stop-color="#00B8F0"/></linearGradient><linearGradient id="b" x1="35.1446" y1="4.62402" x2="35.1446" y2="14.0547" gradientUnits="userSpaceOnUse"><stop stop-color="#1792C7"/><stop offset="1" stop-color="#00B8F0"/></linearGradient><linearGradient id="c" x1="35.1446" y1="10.0386" x2="35.1446" y2="56.7482" gradientUnits="userSpaceOnUse"><stop stop-color="#00B8F0"/><stop offset=".0001" stop-color="#00B8F0"/><stop offset=".739583" stop-color="#B2EEFC"/></linearGradient><linearGradient id="d" x1="51.8681" y1="7.22217" x2="51.8681" y2="28.8323" gradientUnits="userSpaceOnUse"><stop stop-color="#F86CA2"/><stop offset="1" stop-color="#FA9EC2"/></linearGradient></defs></svg>