<svg width="819" height="560" viewBox="0 0 819 560" fill="none" xmlns="http://www.w3.org/2000/svg">
<path d="M581.642 13.9983L581.653 14.0094L581.664 14.0197L663.023 86.2829L663.038 86.2961L663.053 86.3081C681.964 100.585 686.69 133.92 663.041 152.965L663.004 152.995L662.973 153.032L337.552 538.421C337.55 538.424 337.548 538.426 337.546 538.428C323.74 553.599 309.019 558.326 296.239 558.107C283.44 557.888 272.551 552.708 266.45 548.004C266.447 548.002 266.443 547.999 266.44 547.997L17.5986 336.04L17.5874 336.031L17.5757 336.022C8.13401 328.894 2.20745 316.988 1.02195 304.458C-0.163043 291.933 3.39398 278.84 12.8433 269.328L12.8593 269.312L12.8738 269.294L84.6605 182.579L84.6686 182.569L84.6763 182.559C91.7401 173.078 103.543 168.302 116.005 167.704C128.461 167.107 141.496 170.691 150.962 177.832L284.951 293.442L285.336 293.773L285.662 293.384L515.379 18.7843L515.388 18.7735L515.396 18.7622C522.478 9.25748 534.304 3.29288 546.749 2.09978C559.188 0.907214 572.193 4.48668 581.642 13.9983Z" stroke="#3898FE" stroke-opacity="0.11"/>
<path d="M720.608 13.9983L720.619 14.0094L720.631 14.0197L801.989 86.2829L802.004 86.2961L802.02 86.3081C820.931 100.585 825.656 133.92 802.008 152.965L801.97 152.995L801.939 153.032L476.518 538.421C476.516 538.424 476.514 538.426 476.512 538.428C462.707 553.599 447.985 558.326 435.205 558.107C422.406 557.888 411.517 552.708 405.416 548.004C405.413 548.002 405.41 547.999 405.407 547.997L156.565 336.04L156.554 336.031L156.542 336.022C147.101 328.894 141.174 316.988 139.988 304.458C138.803 291.933 142.36 278.84 151.81 269.328L151.826 269.312L151.84 269.294L223.627 182.579L223.635 182.569L223.643 182.559C230.707 173.078 242.509 168.302 254.972 167.704C267.427 167.107 280.463 170.691 289.929 177.832L423.918 293.442L424.302 293.773L424.628 293.384L654.345 18.7843L654.354 18.7735L654.363 18.7622C661.444 9.25748 673.271 3.29288 685.715 2.09978C698.155 0.907214 711.159 4.48668 720.608 13.9983Z" stroke="#3898FE" stroke-opacity="0.11"/>
</svg>
