<svg width="770" height="1126" fill="none" xmlns="http://www.w3.org/2000/svg"><path d="m117.79 213.989.013-.015.012-.016c19.705-26.064 65.669-32.551 91.906.074l.03.037.037.031 529.367 447.602c.003.002.005.003.007.005 20.879 19.025 27.385 39.314 27.072 56.933-.313 17.638-7.463 32.639-13.954 41.046-.003.003-.005.006-.007.009L460.735 1101.5l-.009.02-.009.01c-9.842 13.02-26.262 21.17-43.528 22.79-17.26 1.62-35.309-3.29-48.419-16.33l-.016-.02-.018-.01-119.112-98.74-.01-.01-.01-.01c-13.081-9.756-19.65-26.042-20.461-43.208-.811-17.159 4.137-35.118 13.992-48.16l159.016-184.048.332-.384-.389-.326L24.9072 417.109l-.0108-.009-.0113-.008C11.78 407.314 3.57192 391.003 1.93941 373.855.307417 356.711 5.25145 338.783 18.3787 325.76l.0111-.011.0104-.012L117.79 213.989Z" stroke="#3898FE" stroke-opacity=".11"/><path d="m117.917 22.9992.014-.0148.012-.0159c19.705-26.06412 65.668-32.55071 91.905.0737l.03.0374.037.0311L739.283 470.712l.006.006c20.88 19.024 27.386 39.313 27.073 56.933-.314 17.638-7.463 32.638-13.955 41.046-.002.003-.005.006-.007.009L460.863 910.515l-.01.011-.009.012c-9.842 13.018-26.262 21.173-43.527 22.795-17.26 1.622-35.309-3.291-48.42-16.332l-.016-.016-.017-.015-119.112-98.74-.01-.008-.011-.007c-13.081-9.76-19.649-26.047-20.461-43.212-.811-17.159 4.137-35.119 13.992-48.161l159.016-184.047.332-.384-.389-.326L25.0346 226.12l-.0108-.009-.0113-.009c-13.1051-9.777-21.31314-26.088-22.94565-43.237-1.631992-17.143 3.31204-35.071 16.43925-48.094l.0111-.011.0104-.012L117.917 22.9992Z" stroke="#3898FE" stroke-opacity=".11"/></svg>