<svg width="129" height="21" fill="none" xmlns="http://www.w3.org/2000/svg"><path d="M16.43 7.85c0 .44-.074.881-.074 1.323H5.696c.293 1.617 1.396 2.5 2.94 2.5 1.176 0 2.132-.515 2.573-1.324h4.926c-1.029 3.235-3.896 5.293-7.499 5.293C4.151 15.57.843 12.335.843 7.923.843 3.586 4.15.35 8.636.35c4.558 0 7.793 3.308 7.793 7.5ZM5.768 6.378h5.808c-.441-1.397-1.47-2.206-2.94-2.206-1.471 0-2.5.809-2.868 2.206ZM48.926 7.85c0 .44-.074.881-.074 1.323h-10.66c.294 1.617 1.397 2.5 2.94 2.5 1.177 0 2.133-.515 2.574-1.324h4.926c-1.03 3.235-3.897 5.293-7.5 5.293-4.484 0-7.793-3.234-7.793-7.646 0-4.411 3.309-7.573 7.794-7.573 4.631-.073 7.793 3.235 7.793 7.426Zm-10.66-1.471h5.808c-.442-1.397-1.47-2.206-2.941-2.206-1.47 0-2.427.809-2.868 2.206ZM59.734.718v4.484h-1.912c-1.764 0-2.5.736-2.5 2.574v7.278h-4.926V.791h3.309l.735 1.618C55.47 1.232 56.646.79 58.41.79h1.324V.718ZM76.644.791l-5.956 13.675c-1.911 4.338-3.676 5.955-7.352 5.955h-1.69v-4.264h1.323c1.911 0 2.426-.514 3.088-2.279L60.175.791h5.367l2.94 7.867L71.278.79h5.367ZM93.186 7.996c0 4.485-3.088 7.646-7.5 7.646-1.323 0-2.499-.367-3.455-.955v5.66H77.38V.792h3.382l.588 1.103C82.525.864 84.07.276 85.76.276c4.338.074 7.426 3.235 7.426 7.72Zm-4.926 0c0-1.911-1.323-3.235-3.235-3.235-1.911 0-3.235 1.397-3.235 3.235 0 1.912 1.324 3.235 3.235 3.235 1.838 0 3.235-1.397 3.235-3.235ZM110.684.791v14.263h-3.823l-.441-1.029c-1.176.956-2.647 1.47-4.338 1.47-4.337 0-7.499-3.161-7.499-7.646 0-4.411 3.088-7.573 7.499-7.573 1.691 0 3.162.589 4.338 1.544l.515-1.102 3.749.073Zm-4.705 7.205c0-1.838-1.323-3.235-3.235-3.235-1.838 0-3.235 1.397-3.235 3.235 0 1.838 1.323 3.235 3.235 3.235s3.235-1.397 3.235-3.235ZM128.697.791l-5.955 13.675c-1.912 4.338-3.676 5.955-7.352 5.955h-1.691v-4.264h1.323c1.912 0 2.426-.514 3.088-2.279L112.228.791h5.367l3.015 7.867L123.404.79h5.293Z" fill="#333"/><path d="M32.568 2.642 30.004.383c-.603-.602-1.66-.451-2.112.151l-7.24 8.583-4.223-3.614c-.604-.452-1.66-.452-2.112.15l-2.263 2.71c-.603.603-.452 1.657.151 2.109l7.844 6.625c.302.301.754.452 1.207.301.481-.16 1.095-.858 1.49-1.342L32.569 4.75c.755-.602.604-1.656 0-2.108Z" fill="url(#a)"/><path d="M36.91 2.674 34.346.415c-.604-.602-1.66-.452-2.112.15l-7.24 8.583-4.224-3.613c-.603-.452-1.66-.452-2.112.3l-2.262 2.56c-.453.603-.453 1.657.15 2.109l7.844 6.625c.302.3.779.444 1.207.3.428-.142.752-.609 1.211-1.136L36.91 4.782c.754-.603.603-1.506 0-2.108Z" fill="url(#b)"/><defs><linearGradient id="a" x1="22.375" y1="0" x2="22.375" y2="17.457" gradientUnits="userSpaceOnUse"><stop stop-color="#1792C7"/><stop offset="1" stop-color="#00B8F0"/></linearGradient><linearGradient id="b" x1="26.747" y1=".032" x2="26.747" y2="17.486" gradientUnits="userSpaceOnUse"><stop stop-color="#00B8F0"/><stop offset="0" stop-color="#00B8F0"/><stop offset=".74" stop-color="#B2EEFC"/></linearGradient></defs></svg>