<svg width="519" height="326" fill="none" xmlns="http://www.w3.org/2000/svg"><path d="m439.739 223.276 7.882-2.35c11.461-1.7 21.549 3.181 24.441 13.739l12.623 53.366.104.441H437.61l-11.104-37.501c-2.929-10.593 2.82-24.73 13.233-27.695Z" fill="#FEF97A"/><path d="m470.218 254.623-19.994-4.447c-.651-.145-1.048-.796-.904-1.446l.615-2.712c.144-.651.795-1.049 1.446-.904l19.994 4.447c.651.145 1.049.796.904 1.446l-.614 2.712c-.145.615-.796 1.049-1.447.904Z" fill="#FEF97A"/><path d="M433.556 227.048s-.687 2.748 2.965 1.989c3.652-.759 4.7-1.121 4.7-1.121l-.94-2.495-6.725 1.627Z" fill="#C9A285"/><path d="M474.774 283.452c2.82-5.424 5.797-18.606 8.93-39.546l-19.63 1.334c-2.099 7.878-3.148 11.818-3.148 11.818l-7.376-35.035c-1.807-3.254-5.495-1.374-9.4 2.097-.217.217-4.809-2.17-4.881-2.097 2.675 15.402 1.518 31.708 4.194 47.111 1.627 8.657 4.6 15.403 8.919 20.238 1.379 1.545 3.184 2.646 5.188 3.165 7.331 1.901 13.066-1.127 17.204-9.085Z" fill="#FFCDA8"/><path d="m461.071 257.094 3.579 12.076" stroke="#C9A285" stroke-width="1.08468" stroke-linecap="round" stroke-linejoin="round"/><path d="M452.791 226.217c-.144.072-.361.144-.542.108l-9.437.253-6.616.145c-2.242.904-6.942 2.422-7.449-.796 0 0 6.219-2.567 10.594-4.447l.326-.289c.289-.253.542-.398.903-.506.073-.036.145-.036.217-.036l1.736-.254 3.76-.542 2.459-.361 1.807-.253c1.664-.254 3.146 1.084 3.11 2.747l-.036 2.206c.253.795-.109 1.735-.832 2.025Z" fill="#FFCDA8"/><path d="M485.033 238.306c-.391 8.263-1.958 11.175-9.887 10.705-4.085-.235-11.715 1.911-14.208-1.078-1.142-1.377-8.36-26.694-.43-26.224 7.99.437 24.915 8.301 24.525 16.597Z" fill="#FEF97A"/><path d="M443.79 225.272s1.154 2.587-2.575 2.473c-3.728-.113-4.823-.287-4.823-.287l.492-2.621 6.906.435Z" fill="#C9A285"/><path d="M417.595 286.737c-4.036-2.874-3.275-15.327 2.282-37.358 1.164-5.658 2.554-6.06 4.168-1.205 2.423 7.283-.654 9.397-.654 9.397l2.863-35.351c1.215-3.519 3.491-2.74 7.939 0 .251.176 4.359-2.971 4.443-2.913.039 15.633 4.01 31.491 4.05 47.124-.075 6.711-.409 12.191-.999 16.441-.547 3.933-3.507 7.099-7.395 7.908-5.685 1.184-11.25-.164-16.697-4.043Z" fill="#FFCDA8"/><path d="m423.255 257.632-1.428 12.514" stroke="#482D1F" stroke-width="1.08468" stroke-linecap="round" stroke-linejoin="round"/><path d="M426.683 227.823c.155.046.382.08.553.013l9.338-1.39 6.541-1.006c2.364.501 7.257 1.18 7.197-2.077 0 0-6.57-1.448-11.205-2.54l-.371-.228c-.329-.199-.603-.298-.978-.342-.078-.023-.149-.01-.22.002l-1.753.052-3.797.119-2.484.071-1.825.065c-1.681.039-2.909 1.614-2.585 3.246l.419 2.165c-.111.828.408 1.691 1.17 1.85Z" fill="#FFCDA8"/><path d="M437.248 222.088c-3.728-.114-5.447-1.924-5.124-1.749h10.423c-1.047 1.242-2.813 1.825-5.299 1.749Z" fill="#C9A285"/><path d="M424.015 250.253c-2.188 0-6.018-.817-7.341-2.006-1.396-1.25.068-19.259 9.214-21.532l-1.873 23.538Z" fill="#FEF97A"/><path d="M462.529 203.155c4.148 4.218 8.102 10.555 6.422 13.474-1.202 2.111-3.739 2.779-6.381 3.418-2.484.607-7.338 1.403-13.673-.519-1.804-.671-3.669-1.395-5.464-2.101M429.494 201.976c-3.613 2.027-7.564 5.46-7.024 7.776.384 1.637 1.964 2.585 3.58 3.542 1.519.893 4.625 2.437 9.264 2.445 1.369-.083 2.713-.209 4.092-.326" fill="#482D1F"/><path d="M453.387 212.271c-.993.633-2.014.808-2.698.849-.422.037-.786.277-.949.607l-1.684 6.14s-1.146-.048-1.384 0c-.643.165-2.201.534-5.593.897-3.252.402-3.049.344-3.277.358-2.359.004-4.236-.537-4.576-.665-2.877-.996-4.868-7.256-4.337-15.386.029-.666.163-1.304.261-1.951l1.396-6.327c.304-1.415.958-2.738 1.949-3.782.42-.449.83-.863 1.247-1.163 4.889-3.856 11.384-1.554 12.534-1.096.14.037.27.11.41.147 1.243.67 2.402 1.093 3.669 1.395.559.15.891.725.776 1.294l-2.221 8.987c-.19.847.667 1.563 1.471 1.217 0 0 .035.01.044-.025.123-.042.997-.369 1.959-.186 1.714.309 3.104 2.104 3.274 3.984.203 2.038-.861 3.774-2.271 4.706Z" fill="#FFCDA8"/><path fill-rule="evenodd" clip-rule="evenodd" d="M433.018 203.147s-1.902 5.422-1.972 5.702c-.07.278 1.764-.384 1.764-.384l.208-5.318Z" fill="#E74B73"/><path fill-rule="evenodd" clip-rule="evenodd" d="M428.743 201.052s1.964.062 2.715 1.63c0 0-.619-2.303-2.715-1.63ZM439.493 203.34s-.58-1.45-1.765-1.222c-1.187.229-1.431 1.057-1.431 1.057s1.631-1.727 3.196.165Z" fill="#2D3238"/><path d="M432.739 212.637c.263-.005.913-.055 1.121-.411.019-.07.082-.166.066-.245-.084-.247-.566-.264-1.213-.362-1.146-.195-2.026-.543-2.026-.543s.092.773.22.995c.2.652 1.42.567 1.832.566Z" fill="#2D3238"/><path d="M462.88 198.495c-.695-1.459-1.679-2.396-2.102-2.772-2.334-2.047-4.582-1.901-9.862-3.428-1.083-.29-2.705-.8-4.64-1.543-.149-.002-.279-.075-.419-.112-1.15-.458-7.447-2.52-12.089 1.252-.019.07-.762.47-.711.558 0 0 .007.114.074.282-.016-.079-.023-.193-.039-.272.624.466 1.331 1.18 2.227 1.607 2.523 1.2 4.905 1.389 6.38 1.335.194.951.5 2.043.99 3.148 1.401 3.295 3.62 5.349 5.093 6.418-.42 1.01-.841 2.02-1.252 2.996.175.047.315.084.499.096 0 0 2.825-.067 3.433 1.294.135.336.121.669.065.878-.46 2.834-3.215 5.989-2.652 6.963.569 1.089 5.354.274 9.24-2.353 1.055-.727 3.904-2.697 5.539-6.563.425-1.309 2.226-5.655.226-9.784Z" fill="#482D1F"/><path fill-rule="evenodd" clip-rule="evenodd" d="M430.721 203.366c.208.33.11.765-.22.973-.33.209-.767.111-.976-.22-.208-.33-.108-.766.223-.974.33-.209.765-.11.973.221ZM437.804 204.498c.258.41.135.948-.274 1.207-.41.258-.947.136-1.206-.274-.258-.41-.138-.949.272-1.207.409-.258.95-.136 1.208.274Z" fill="#2D3238"/><path d="m445.167 208.721 2.578-3.614s.788-.986 2.175-1.55c.123-.042.997-.369 1.959-.187 1.713.31 3.104 2.105 3.274 3.985.221 1.968-.833 3.669-2.209 4.611-1.375.941-2.856.881-3.338.864l-1.807-.521" fill="#FFCDA8"/><path d="m452.791 217.427-.304 2.951-4.359-.495c-.622-.054-1.024-.648-.935-1.261l.232-1.285 1.014-2.386 4.352 2.476Z" fill="#482D1F"/><path d="M163.113 203.032c.028 1.787.05 3.632.05 5.499 0 0 .796 7.991-2.82 11.336-.398.387-.868.669-1.265.915-.832.493-1.555.704-1.555.704s-.036.035-.072.035c-5.785 1.549-10.522 1.092-13.017 1.162-8.026.176-14.534.141-20.175-.035-3.434-.106-18.005.845-19.849-1.831-.036-.07-.073-.141-.109-.211-.325-.739-.578-1.655-.759-2.746-.036-.106-.072-.246-.072-.352-.598-3.553-.654-8.714-.048-14.897l-17.3622-1.425c-1.1365-.093-2.0068-1.05-1.9917-2.191.0774-5.855.3946-9.867.9515-12.033 2.5751-10.018 7.496-14.352 7.9306-15.903 2.4708-8.961 4.9268-12.141 5.9199-13.1 1.1409-1.138 2.2389-1.914 2.9709-2.408 4.939-3.276 10.118-3.692 12.758-3.719.073-.034.145-.033.217-.032l12.837.043c1.044-.026 1.257-.067 1.051.171 1.57-.216 3.364-.432 5.318-.619 2.906.044 5.543.203 7.911.475l10.796.152c.072 0 .144 0 .216.036 2.64.073 7.81.579 12.691 3.941.723.506 1.808 1.302 2.929 2.459.976.976 3.376 4.198 5.69 13.201.408 1.559 5.252 5.978 7.652 16.039.519 2.176.766 6.193.741 12.049-.004 1.14-.891 2.082-2.029 2.155l-17.506 1.13Z" fill="#B2EEFC"/><path d="m101.12 220.531.687-.362 12.003-6.399s29.106-6.791 45.846-9.9c2.893-2.061 20.103-1.598 20.573-2.068 1.193 11.497 2.711 22.976-11.817 22.976l-72.8966-1.246 5.6046-3.001Z" fill="#FFCDA8"/><path d="M112.581 191.497c.723-2.35 4.194-13.16 5.026-15.402M154.93 176.095l4.983 26.672" stroke="#482D1F" stroke-width="1.08468" stroke-linecap="round" stroke-linejoin="round"/><path d="m130.936 138.807 8.437 3.337.072 1.772v.036l-.217 9.835c0 .289-.217.578-.506.651-1.446.433-4.014.94-7.014.253-1.664-.362-3.001-1.013-3.941-1.591-.217-.109-.326-.362-.326-.615l.385-11.31c-1.033-1.048-2.487-2.603-3.35-3.875-.723-1.049-3.109-3.58-3.76-7.702-.181-1.374-.868-6.002 1.989-9.581 1.012-1.265 2.169-1.916 2.675-2.169 2.712-1.447 4.845-.796 10.232-1.013.434-.036 1.157-.036 2.061-.108 1.663-.109 2.82-.253 3.146-.289 2.675-.29 8.497.217 11.281 4.085.144.253.325.506.506.723-.723.326-1.555.832-2.495 1.049-2.676.578-4.99.181-6.436-.217-2.567 2.748-5.134 5.496-7.701 8.207-1.369 1.917-3.499 5.699-5.038 8.522Z" fill="#FFCDA8"/><path d="m139.951 146.266-5.676-1.048 4.917 6.002.759-4.954Z" fill="#C9A285"/><path d="m154.124 126.272-.144 6.472c-.036.651-.073 1.302-.217 1.952-.796 4.592-2.278 8.425-3.941 10.883-1.23 1.844-2.603 2.929-3.905 3.037-.362.073-2.314.145-4.592-.433-.217-.073-.036.036-3.109-1.121-1.193-.434-2.133-.796-2.857-1.121-1.301-.542-1.988-.904-2.35-1.121-.253-.108-.325-.181-.325-.181-1.699-3.254-3.146-6.219-4.375-8.822-.723-1.555-1.482-3.109-1.085-5.025.145-.76.543-2.64 2.206-3.616 1.627-.94 3.435-.47 3.941-.325.687.18 1.229.47 1.555.686l-.037-9.255c0-.579.47-1.085 1.049-1.085 1.265-.036 2.531-.145 3.869-.506.144-.036.289-.036.433-.073 1.23-.18 8.099-.904 11.932 4.014.361.397.651.867.94 1.446.687 1.338 1.049 2.748 1.012 4.194Z" fill="#FFCDA8"/><path fill-rule="evenodd" clip-rule="evenodd" d="M147.797 129.508s3.238 8.273 3.362 8.699c.122.422-2.774-.668-2.774-.668l-.588-8.031Z" fill="#E74B73"/><path fill-rule="evenodd" clip-rule="evenodd" d="M153.365 129.276s-1.874-.588-3.099.646c0 0 1.342-1.971 3.099-.646ZM142.455 130.394s1.875-.588 3.1.646c0 0-1.343-1.971-3.1-.646ZM151.2 131.091c-.208.33-.11.765.22.974.331.208.767.11.976-.22.208-.331.108-.767-.222-.975-.33-.209-.765-.11-.974.221ZM144.117 132.223c-.258.41-.135.948.275 1.207.409.258.946.136 1.205-.274.258-.41.138-.949-.272-1.207-.409-.258-.949-.136-1.208.274Z" fill="#2D3238"/><path d="M152.606 121.246c-.723.326-1.555.832-2.531 1.049-2.712.578-5.098.181-6.544-.217-2.604 2.748-6.147 6.4-8.786 9.147-4.918.217-8.895-.506-13.812-.289 0 0-.47-.506-.723-1.265-.362-1.085-1.121-5.749 2.025-9.582 1.012-1.265 2.205-1.916 2.711-2.169 2.748-1.446 4.918-.795 10.413-1.012.434-.037 1.157-.037 2.097-.109 1.7-.108 2.857-.253 3.218-.289 2.712-.289 8.642.217 11.462 4.086.108.18.289.433.47.65Z" fill="#482D1F"/><path d="m135.685 134.841-.47-4.628s-.217-1.302-1.193-2.531c-.073-.072-.723-.831-1.7-1.157-1.735-.578-3.905.326-5.062 1.953-1.193 1.663-1.084 3.796-.289 5.387.796 1.591 2.17 2.241 2.64 2.458l1.916.398 4.158-1.88Z" fill="#FFCDA8"/><path d="M147.368 141.747c-.253-.073-.868-.253-.977-.651 0-.072-.036-.181 0-.253.145-.253.579-.109 1.23-.073 1.157.073 2.097-.036 2.097-.036s-.253.723-.434.94c-.398.543-1.555.181-1.916.073Z" fill="#2D3238"/><path d="M126.14 130.394c-.181 1.157.036 2.386.542 3.362.795 1.591 2.169 2.242 2.639 2.459" stroke="#C9A285" stroke-width=".72312" stroke-linecap="round" stroke-linejoin="round"/><path d="M122.285 183.128c3.121-12.883 5.221-20.519 6.301-22.908 1.067-2.36 1.221-.634 1.97.347.388.509.231-.746.834-.64 1.178.208 1.872 1.005 2.081 2.39 1.044.605 1.484 1.373 1.32 2.305-.12.676.824 2.075-1.164 10.379-.706 2.95 1.168 6.984.443 10.144l.03.005c-1.789 6.723-7.648 17.05-17.578 30.983-14.894 20.9-27.5508 9.951-30.9501 7.601-2.2661-1.567-2.2661-9.118 0-22.655l16.4541 1.374 20.259-19.325Z" fill="#FFCDA8"/><path d="m101.77 202.453-3.5608 2.109" stroke="#482D1F" stroke-width="1.08468" stroke-linecap="round" stroke-linejoin="round"/><path d="m119.523 211.822-9.039 11.208" stroke="#C9A285" stroke-width="1.08468" stroke-linecap="round" stroke-linejoin="round"/><path d="M357.325 144.933H227.164c-3.994 0-7.232 3.238-7.232 7.231v93.283c0 3.993 3.238 7.231 7.232 7.231h130.161c3.994 0 7.231-3.238 7.231-7.231v-93.283c0-3.993-3.237-7.231-7.231-7.231Z" fill="#F2F6FB"/><path d="M242.91 188.274c-7.207 0-13.049-5.847-13.049-13.06s5.842-13.06 13.049-13.06c7.206 0 13.049 5.847 13.049 13.06s-5.843 13.06-13.049 13.06Zm-.007-13.236c1.777 0 3.217-1.423 3.217-3.177 0-1.755-1.44-3.177-3.217-3.177-1.777 0-3.218 1.422-3.218 3.177 0 1.754 1.441 3.177 3.218 3.177Zm0 1.588c-3.221 0-5.832 2.578-5.832 5.758h11.664c0-3.18-2.611-5.758-5.832-5.758Zm.007 59.97c-7.207 0-13.049-5.847-13.049-13.06s5.842-13.06 13.049-13.06c7.206 0 13.049 5.847 13.049 13.06s-5.843 13.06-13.049 13.06Zm-.007-13.236c1.777 0 3.217-1.423 3.217-3.177 0-1.755-1.44-3.177-3.217-3.177-1.777 0-3.218 1.422-3.218 3.177 0 1.754 1.441 3.177 3.218 3.177Zm0 1.588c-3.221 0-5.832 2.578-5.832 5.758h11.664c0-3.18-2.611-5.758-5.832-5.758Zm20.303-4.024h69.019c.399 0 .723.324.723.723v3.778c0 .399-.324.723-.723.723h-69.019c-.399 0-.723-.324-.723-.723v-3.778c0-.399.324-.723.723-.723Zm0 8.489H325.7c.4 0 .723.324.723.723v3.778c0 .399-.323.723-.723.723h-62.494c-.399 0-.723-.324-.723-.723v-3.778c0-.399.324-.723.723-.723Z" fill="#D8DEED"/><path d="M334.072 162.154h-70.143c-.798 0-1.446.648-1.446 1.446v36.288c0 .799.648 1.446 1.446 1.446h70.143c.799 0 1.446-.647 1.446-1.446V163.6c0-.798-.647-1.446-1.446-1.446Z" fill="#73E2FD"/><path fill-rule="evenodd" clip-rule="evenodd" d="m299.587 188.241-.685.009.005-.009h-8.975c-.401 0-.556-.273-.345-.613l6.237-10.021c.21-.339.56-.341.78-.008l4.57 6.991 1.644-2.647c.211-.339.563-.35.792-.016l3.811 5.538c.227.33.09.607-.313.62l-3.175.098-.524.007.03.051h-3.852Zm3.763-9.302c-.84 0-1.522-.688-1.522-1.536 0-.848.682-1.536 1.522-1.536s1.522.688 1.522 1.536c0 .848-.682 1.536-1.522 1.536Z" fill="#fff"/><path d="M340.054 212.435h-76.848c-.399 0-.723.324-.723.723v3.778c0 .399.324.723.723.723h76.848c.399 0 .723-.324.723-.723v-3.778c0-.399-.324-.723-.723-.723Z" fill="#E1E5F0"/><g clip-path="url(#a)"><path d="M382.996 85.9988H248.134c-3.994 0-7.231 3.2375-7.231 7.2312v30.733c0 3.993 3.237 7.231 7.231 7.231h134.862c3.994 0 7.231-3.238 7.231-7.231V93.23c0-3.9937-3.237-7.2312-7.231-7.2312Z" fill="#D8DEED"/><path d="M367.611 121.881c-7.206 0-13.049-5.847-13.049-13.06s5.843-13.0601 13.049-13.0601c7.207 0 13.049 5.8471 13.049 13.0601s-5.842 13.06-13.049 13.06Zm-.006-13.237c1.777 0 3.217-1.422 3.217-3.176 0-1.755-1.44-3.177-3.217-3.177-1.777 0-3.218 1.422-3.218 3.177 0 1.754 1.441 3.176 3.218 3.176Zm0 1.589c-3.221 0-5.832 2.578-5.832 5.758h11.664c0-3.18-2.611-5.758-5.832-5.758Zm-112.797-2.718h75.543c.399 0 .723.324.723.723v3.778c0 .399-.324.723-.723.723h-75.543c-.399 0-.723-.324-.723-.723v-3.778c0-.399.324-.723.723-.723Zm0 8.489h82.068c.399 0 .723.324.723.723v3.778c0 .399-.324.723-.723.723h-82.068c-.399 0-.723-.324-.723-.723v-3.778c0-.399.324-.723.723-.723Z" fill="#F2F6FB"/><path d="M338.18 99.0259h-83.372c-.399 0-.723.3237-.723.7231v3.778c0 .399.324.723.723.723h83.372c.4 0 .724-.324.724-.723v-3.778c0-.3994-.324-.7231-.724-.7231Z" fill="#E1E5F0"/><path d="M339.609 46.5887H204.747c-3.994 0-7.231 3.2376-7.231 7.2312v30.7326c0 3.9937 3.237 7.2312 7.231 7.2312h134.862c3.993 0 7.231-3.2375 7.231-7.2312V53.8199c0-3.9936-3.238-7.2312-7.231-7.2312Z" fill="#F2F6FB"/><path d="M223.747 82.2561c-7.207 0-13.049-5.8472-13.049-13.06 0-7.2128 5.842-13.06 13.049-13.06s13.049 5.8472 13.049 13.06c0 7.2128-5.842 13.06-13.049 13.06Zm-.007-13.2365c1.777 0 3.218-1.4223 3.218-3.1768 0-1.7544-1.441-3.1767-3.218-3.1767s-3.217 1.4223-3.217 3.1767c0 1.7545 1.44 3.1768 3.217 3.1768Zm0 1.5884c-3.221 0-5.832 2.5779-5.832 5.7578h11.664c0-3.1799-2.611-5.7578-5.832-5.7578Zm20.303-4.0239h75.543c.4 0 .724.3237.724.7231v3.7778c0 .3993-.324.7231-.724.7231h-75.543c-.399 0-.723-.3238-.723-.7231v-3.7778c0-.3994.324-.7231.723-.7231Zm0 8.489h88.592c.4 0 .724.3237.724.7231v3.7777c0 .3994-.324.7232-.724.7232h-88.592c-.399 0-.723-.3238-.723-.7232v-3.7777c0-.3994.324-.7231.723-.7231Z" fill="#D8DEED"/><path d="M301.318 58.0951h-57.275c-.399 0-.723.3237-.723.7231v3.7778c0 .3993.324.7231.723.7231h57.275c.399 0 .723-.3238.723-.7231v-3.7778c0-.3994-.324-.7231-.723-.7231Z" fill="#E1E5F0"/></g><g clip-path="url(#b)"><path d="M323.7 271.117H169.314c-3.994 0-7.231 3.238-7.231 7.232v20.608c0 3.994 3.237 7.232 7.231 7.232H323.7c3.994 0 7.231-3.238 7.231-7.232v-20.608c0-3.994-3.237-7.232-7.231-7.232Z" fill="#D8DEED"/><path d="M292.606 283.772h21.693c1.156 0 2.183.258 3.04.73.857.472 1.544 1.158 2.016 2.015.472.857.729 1.885.729 3.04s-.257 2.183-.729 3.04c-.472.857-1.159 1.543-2.016 2.015-.857.472-1.884.73-3.04.73h-21.693c-1.155 0-2.183-.258-3.04-.73-.857-.472-1.543-1.158-2.015-2.015-.472-.857-.73-1.885-.73-3.04s.258-2.183.73-3.04c.472-.857 1.158-1.543 2.015-2.015.857-.472 1.885-.73 3.04-.73Z" fill="#474BFF"/><path d="M273.443 283.772h-96.175c-.798 0-1.446.647-1.446 1.446v8.678c0 .798.648 1.446 1.446 1.446h96.175c.799 0 1.446-.648 1.446-1.446v-8.678c0-.799-.647-1.446-1.446-1.446Z" fill="#fff"/></g><path d="M425.983 283.772h24.225c2.396 0 4.338 1.942 4.338 4.339v7.231H374.28v-47.364h47.364c2.397 0 4.339 1.942 4.339 4.338v31.456Z" fill="#B2EEFC"/><path d="m69.0059 228.605 4.2874-17.299H41.109c-3.3438 0-6.1085-2.542-6.1085-5.618v-48.997c-.044-3.121 2.6756-5.662 6.0639-5.662h97.9486c3.344 0 6.108 2.541 6.108 5.618v49.041c0 3.076-2.764 5.618-6.108 5.618H99.7912l-1.7698 17.299h11.6126c1.783 0 3.165 1.426 3.165 3.165 0 1.784-1.427 3.166-3.165 3.166H59.9236c-1.7834 0-3.1654-1.427-3.1654-3.166-.0892-1.739 1.382-3.165 3.1654-3.165h9.0823Z" fill="#73E2FD"/><path d="m268.936 121.186-7.554-6.721c-1.777-1.792-4.887-1.344-6.22.448l-21.328 25.54-12.442-10.754c-1.777-1.344-4.887-1.344-6.22.448l-6.665 8.066c-1.778 1.792-1.333 4.928.444 6.273l23.105 19.715c.889.896 2.222 1.344 3.555.896 1.333 0 2.666-.448 3.11-1.793l30.215-35.845c2.222-1.792 1.777-4.929 0-6.273Z" fill="url(#c)"/><path d="m281.725 121.143-7.554-6.721c-1.777-1.792-4.888-1.344-6.221.448l-21.328 25.54-12.441-10.754c-1.777-1.344-4.888-1.344-6.221.897l-6.665 7.617c-1.333 1.792-1.333 4.929.445 6.273l23.105 19.715c.889.896 2.222 1.344 3.555.896 1.333 0 2.666-.448 3.11-1.792l30.215-35.846c2.221-1.792 1.777-4.481 0-6.273Z" fill="url(#d)"/><defs><linearGradient id="c" x1="238.908" y1="113.324" x2="238.908" y2="165.272" gradientUnits="userSpaceOnUse"><stop stop-color="#1792C7"/><stop offset="1" stop-color="#00B8F0"/></linearGradient><linearGradient id="d" x1="251.787" y1="113.281" x2="251.787" y2="165.23" gradientUnits="userSpaceOnUse"><stop stop-color="#00B8F0"/><stop offset=".0001" stop-color="#00B8F0"/><stop offset=".739583" stop-color="#B2EEFC"/></linearGradient><clipPath id="a"><path fill="#fff" transform="translate(197.516 20.918)" d="M0 0h192.711v110.276H0z"/></clipPath><clipPath id="b"><path fill="#fff" transform="translate(147.982 195.913)" d="M0 0h192.711v110.276H0z"/></clipPath></defs></svg>