<svg width="461" height="474" fill="none" xmlns="http://www.w3.org/2000/svg"><path d="M150.209 429.049v-55.611H108.66v-50.413h41.549v-40.538H108.66v-64.446h41.549V57.9658h118.415c47.781 0 82.578 9.7015 104.392 29.1046 22.159 19.4026 33.239 46.0826 33.239 80.0376 0 20.096-4.501 38.979-13.504 56.65-9.002 17.67-24.064 31.876-45.184 42.617-20.775 10.741-49.166 16.112-85.176 16.112h-33.758v40.538h79.982v50.413h-79.982v55.611h-78.424Zm78.424-211.008h25.968c22.159 0 39.645-3.811 52.456-11.434 13.157-7.623 19.735-19.923 19.735-36.9 0-31.53-20.774-47.295-62.323-47.295h-35.836v95.629Z" fill="url(#a)"/><path fill-rule="evenodd" clip-rule="evenodd" d="M361.884 416.252c1.105 0 2 .895 2 2v25.006c0 1.104-.895 2-2 2h-29.382l-2.695 4.73c-.191.335-.674.338-.867.004l-2.748-4.734h-6.52c-1.105 0-2-.896-2-2v-25.006c0-1.105.895-2 2-2h42.212Z" fill="url(#b)"/><path transform="matrix(.99945 -.03323 .02915 .99957 281.983 433.776)" stroke="#FEF97A" stroke-width="2" stroke-linecap="round" stroke-linejoin="round" d="M1-1h20.3528"/><path transform="matrix(.9974 -.07217 .06336 .998 291.229 440.721)" stroke="#FEF97A" stroke-width="2" stroke-linecap="round" stroke-linejoin="round" d="M1-1h9.2426"/><path transform="matrix(.9974 -.07217 .06336 .998 292.569 426.003)" stroke="#FEF97A" stroke-width="2" stroke-linecap="round" stroke-linejoin="round" d="M1-1h9.2426"/><path d="M359.007 292.888c-.277-.504-.791-.791-1.406-.791h-7.561c-.903 0-1.84.624-2.23 1.486l-8.019 17.663c-.261.576-.245 1.187.039 1.672.287.489.795.773 1.396.787l5.934.079-4.295 11.389c-.106.284-.328.879.068 1.491.173.268.47.433.775.433h.069c.58 0 .929-.466 1.097-.691l13.88-18.486c.593-.788.348-1.494.259-1.7-.093-.197-.466-.842-1.412-.842h-4.417l5.78-10.801c.303-.57.32-1.187.043-1.689Z" fill="#FEF97A"/><path fill-rule="evenodd" clip-rule="evenodd" d="M65.0031 112.479c1.1045 0 2 .896 2 2v10.094c0 1.104-.8955 2-2 2H50.1427l-1.2605 2c-.1952.31-.6461.312-.8439.003l-1.2861-2.003h-2.5774c-1.1046 0-2-.896-2-2v-10.094c0-1.104.8954-2 2-2h20.8283Z" fill="url(#c)"/><path transform="matrix(.99955 -.03003 .03226 .99948 23 120.995)" stroke="#FEF97A" stroke-linecap="round" stroke-linejoin="round" d="M.5-.5h11.0084"/><path transform="matrix(.99787 -.0653 .07003 .99755 27.9678 124.368)" stroke="#FEF97A" stroke-linecap="round" stroke-linejoin="round" d="M.5-.5h5.03819"/><path transform="matrix(.99787 -.06527 .07007 .99754 28.6877 117.217)" stroke="#FEF97A" stroke-linecap="round" stroke-linejoin="round" d="M.5-.5h5.03819"/><path d="M118.263 25.6339c-.277-.4558-.791-.7159-1.407-.7159h-7.56c-.903 0-1.841.5649-2.23 1.3441l-8.0188 15.9727c-.2619.521-.2457 1.0736.039 1.5119.2867.4422.7942.6998 1.3958.7121l5.934.0716-4.296 10.2988c-.105.257-.327.7953.068 1.3487.173.2427.47.3912.776.3912h.069c.58 0 .929-.4216 1.097-.6249l13.88-16.7171c.592-.7121.348-1.3512.258-1.5371-.093-.1782-.465-.7618-1.411-.7618h-4.417l5.78-9.7675c.303-.5152.32-1.073.043-1.5268Z" fill="#FEF97A"/><g clip-path="url(#d)"><path d="M73.6959 193.139c-.1933-.299-.5513-.47-.9805-.47h-5.2696c-.629 0-1.2826.371-1.5542.883l-5.5886 10.497c-.1825.342-.1712.705.0272.993.1999.291.5536.46.973.468l4.1358.047-2.994 6.768c-.0736.169-.2285.523.0474.886.1205.16.3274.257.5404.257h.0483c.4039 0 .6474-.277.7642-.41l9.6742-10.986c.4128-.468.2425-.888.1801-1.01-.0647-.117-.3246-.501-.9838-.501h-3.0783l4.0283-6.418c.2112-.339.2229-.705.0301-1.004Z" fill="#FEF97A"/></g><path fill-rule="evenodd" clip-rule="evenodd" d="M406.134 364.918c-2.209 0-4 1.791-4 4v12.901c0 2.209 1.791 4 4 4h21.006l1.653 2.623c.39.62 1.292.623 1.687.007l1.688-2.63h2.79c2.209 0 4-1.791 4-4v-12.901c0-2.209-1.791-4-4-4h-28.824Z" fill="url(#e)"/><path transform="matrix(.99955 -.03005 .03224 .99948 368.127 377.615)" stroke="#FEF97A" stroke-linecap="round" stroke-linejoin="round" d="M.5-.5h23.0016"/><path transform="matrix(.99787 -.0653 .07003 .99755 378.056 384.359)" stroke="#FEF97A" stroke-linecap="round" stroke-linejoin="round" d="M.5-.5h11.0674"/><path transform="matrix(.99787 -.0653 .07003 .99755 379.495 370.066)" stroke="#FEF97A" stroke-linecap="round" stroke-linejoin="round" d="M.5-.5h11.0674"/><defs><linearGradient id="a" x1="257.457" y1="57.9658" x2="257.457" y2="429.049" gradientUnits="userSpaceOnUse"><stop stop-color="#00B8F0"/><stop offset=".0001" stop-color="#00B8F0"/><stop offset=".739583" stop-color="#B2EEFC"/></linearGradient><linearGradient id="b" x1="340.778" y1="416.252" x2="340.778" y2="450.241" gradientUnits="userSpaceOnUse"><stop stop-color="#00B8F0"/><stop offset=".0001" stop-color="#00B8F0"/><stop offset=".739583" stop-color="#B2EEFC"/></linearGradient><linearGradient id="c" x1="54.5889" y1="112.479" x2="54.5889" y2="128.806" gradientUnits="userSpaceOnUse"><stop stop-color="#00B8F0"/><stop offset=".0001" stop-color="#00B8F0"/><stop offset=".739583" stop-color="#B2EEFC"/></linearGradient><linearGradient id="e" x1="420.546" y1="364.918" x2="420.546" y2="388.909" gradientUnits="userSpaceOnUse"><stop stop-color="#6FC7A1"/><stop offset="1" stop-color="#DBFBDF"/></linearGradient><clipPath id="d"><path fill="#fff" transform="translate(55.5031 192.669)" d="M0 0h23v20.7993H0z"/></clipPath></defs></svg>