<svg width="422" height="361" fill="none" xmlns="http://www.w3.org/2000/svg"><mask id="a" style="mask-type:alpha" maskUnits="userSpaceOnUse" x="0" y="0" width="207" height="240"><path d="M103.443 239.501c-5.2003 0-8.6659-1.574-9.0795-1.725C93.3443 237.407 0 200.5 0 87.2273V4.45312C0 2.45751 1.65444.837891 3.69295.837891H203.113c2.038 0 3.692 1.967139 3.692 3.615229V87.2273c0 106.7897-82.517 145.6987-92.816 150.1177-.712.305-1.389.617-2.133.833-1.919.557-5.795 1.323-8.413 1.323Z" fill="#fff"/></mask><g mask="url(#a)"><path d="m241.362 40.9428 43.995 33.0297c10.388 8.8441 13.365 22.4494 1.065 31.9035L120.856 292.48c-6.198 6.066-9.542 9.705-17.105 9.908l-.988-147.438L206.147 44.1713c7.258-9.3189 24.828-12.0726 35.215-3.2285Z" fill="url(#b)"/><path d="m-36.3717 42.4443-43.5486 33.503c-10.2682 8.9557-13.0627 22.5922-.6371 31.9127L87.4989 292.661c6.2794 5.998 9.672 9.6 17.2371 9.722l-.989-147.438L-1.11568 45.2919c-7.38258-9.2398-24.98782-11.8033-35.25602-2.8476Z" fill="url(#c)"/><path d="m240.585-74.9986 43.995 33.0297c10.388 8.8441 13.365 22.4494 1.065 31.904L120.079 176.539c-6.198 6.066-9.542 9.704-17.105 9.908l-.988-147.4383L205.37-71.7701c7.258-9.3189 24.828-12.0726 35.215-3.2285Z" fill="url(#d)"/><path d="M-37.1494-73.4966-80.698-39.9937c-10.2682 8.9558-13.0627 22.5923-.6371 31.91324L86.7212 176.72c6.2794 5.998 9.672 9.6 17.2368 9.722l-.989-147.4379L-1.89339-70.649c-7.38258-9.2398-24.98781-11.8034-35.25601-2.8476Z" fill="url(#e)"/><path d="m239.837-186.538 43.995 33.03c10.387 8.844 13.365 22.449 1.065 31.904L119.331 64.9998c-6.198 6.0657-9.542 9.7043-17.105 9.9078l-.988-147.438L204.622-183.309c7.258-9.319 24.828-12.073 35.215-3.229Z" fill="url(#f)"/><path d="m-37.8972-185.036-43.5486 33.503c-10.2682 8.956-13.0627 22.593-.6371 31.913L85.9734 65.1808c6.2794 5.9983 9.672 9.6004 17.2366 9.7221l-.989-147.4379L-2.64119-182.188c-7.38261-9.24-24.98781-11.803-35.25601-2.848Z" fill="url(#g)"/></g><path d="M282.618 212.836h-20.631V100.568c0-12.7159-5.054-24.9109-14.05-33.9023-8.996-8.9915-21.198-14.0428-33.92-14.0428-12.722 0-24.923 5.0513-33.919 14.0428-8.996 8.9914-14.05 21.1864-14.05 33.9023v112.268h-20.632V100.568c0-18.1849 7.228-35.6249 20.093-48.4836 12.865-12.8586 30.314-20.0824 48.508-20.0824 18.194 0 35.643 7.2238 48.508 20.0824 12.865 12.8587 20.093 30.2987 20.093 48.4836v112.268Z" fill="url(#h)"/><path opacity=".4" d="M282.618 212.836h-20.631V100.568c0-12.7159-5.054-24.9109-14.05-33.9023-8.996-8.9915-21.198-14.0428-33.92-14.0428-12.722 0-24.923 5.0513-33.919 14.0428-8.996 8.9914-14.05 21.1864-14.05 33.9023v112.268h-20.632V100.568c0-18.1849 7.228-35.6249 20.093-48.4836 12.865-12.8586 30.314-20.0824 48.508-20.0824 18.194 0 35.643 7.2238 48.508 20.0824 12.865 12.8587 20.093 30.2987 20.093 48.4836v112.268Z" fill="url(#i)"/><path d="M296.89 162.876H131.161c-5.3 0-9.597 4.295-9.597 9.593v99.39c0 5.297 4.297 9.592 9.597 9.592H296.89c5.3 0 9.597-4.295 9.597-9.592v-99.39c0-5.298-4.297-9.593-9.597-9.593Z" fill="url(#j)"/><path d="M229.478 206.727c.002-2.876-.799-5.695-2.312-8.14-1.514-2.445-3.68-4.42-6.255-5.702-2.575-1.282-5.457-1.821-8.322-1.555-2.864.265-5.598 1.324-7.893 3.058-2.296 1.734-4.061 4.073-5.099 6.755-1.038 2.682-1.306 5.6-.776 8.426.531 2.826 1.841 5.448 3.781 7.571 1.94 2.123 4.435 3.662 7.203 4.446V244.7h8.424v-23.114c3.24-.911 6.093-2.857 8.124-5.539 2.031-2.683 3.129-5.956 3.125-9.32Z" fill="#2D3238" opacity=".5"/><path d="M15.1194 297.994c3.932 0 7.1194-3.186 7.1194-7.116 0-3.929-3.1874-7.115-7.1194-7.115-3.9319 0-7.1194 3.186-7.1194 7.115 0 3.93 3.1875 7.116 7.1194 7.116Z" fill="url(#k)"/><path d="M422 65.2695c-.003 1.4067-.424 2.7808-1.208 3.9488-.784 1.1681-1.897 2.0775-3.198 2.6136-1.302.536-2.733.6746-4.112.3982-1.38-.2765-2.647-.9555-3.641-1.9513-.994-.9958-1.671-2.2638-1.944-3.6436-.274-1.3799-.132-2.8098.408-4.1091.539-1.2993 1.452-2.4096 2.622-3.1908 1.17-.7812 2.546-1.1981 3.954-1.1981.936 0 1.863.1846 2.728.5432.865.3587 1.65.8843 2.312 1.5468.661.6625 1.185 1.4489 1.542 2.3142.357.8652.539 1.7923.537 2.7281Z" fill="url(#l)"/><path d="M65.1371 309.238c0 .359-.1066.71-.3062 1.009-.1997.298-.4835.531-.8155.668-.332.138-.6973.174-1.0498.104-.3525-.07-.6762-.243-.9304-.497-.2541-.254-.4271-.578-.4972-.93-.0701-.352-.0342-.718.1034-1.049.1375-.332.3704-.616.6692-.815.2988-.2.6501-.307 1.0095-.307.2392-.002.4765.044.6979.134.2215.091.4227.224.5918.393.1692.17.3029.371.3935.592.0905.221.136.458.1338.698Z" fill="url(#m)"/><path d="M103.807 109.78c0 .36-.107.711-.307 1.009-.199.299-.483.532-.815.669-.332.138-.698.174-1.05.104-.352-.07-.676-.243-.93-.497s-.427-.578-.498-.93c-.07-.353-.034-.718.104-1.05.137-.331.37-.615.669-.815.299-.199.65-.306 1.01-.306.481 0 .944.192 1.284.532.341.341.533.803.533 1.284Z" fill="url(#n)"/><path d="M386.271 206.743c0 .36-.107.711-.306 1.009-.2.299-.484.532-.816.669-.332.138-.697.174-1.05.104-.352-.07-.676-.243-.93-.497s-.427-.578-.497-.93c-.07-.353-.034-.718.103-1.05.138-.331.37-.615.669-.815.299-.199.65-.306 1.01-.306.239-.002.476.044.698.134.221.091.422.224.591.393.17.169.303.37.394.592.09.221.136.458.134.697Z" fill="url(#o)"/><path d="M411.379 122.394c.003.36-.101.713-.298 1.014-.198.301-.481.536-.812.676-.332.14-.698.178-1.052.11-.353-.068-.678-.24-.934-.493s-.431-.577-.502-.93c-.072-.352-.037-.718.1-1.051.137-.333.37-.618.669-.818.3-.2.652-.307 1.012-.307.479 0 .938.189 1.279.526.34.337.533.795.538 1.273Z" fill="url(#p)"/><defs><linearGradient id="b" x1="193.759" y1="36.4157" x2="200.846" y2="299.775" gradientUnits="userSpaceOnUse"><stop stop-color="#00B8F0"/><stop offset=".0001" stop-color="#00B8F0"/><stop offset=".739583" stop-color="#B2EEFC"/></linearGradient><linearGradient id="c" x1="11.1676" y1="37.4029" x2="6.92895" y2="300.809" gradientUnits="userSpaceOnUse"><stop stop-color="#00B8F0"/><stop offset=".0001" stop-color="#00B8F0"/><stop offset=".739583" stop-color="#B2EEFC"/></linearGradient><linearGradient id="d" x1="192.982" y1="-79.5257" x2="200.069" y2="183.834" gradientUnits="userSpaceOnUse"><stop stop-color="#00B8F0"/><stop offset=".0001" stop-color="#00B8F0"/><stop offset=".739583" stop-color="#B2EEFC"/></linearGradient><linearGradient id="e" x1="10.3899" y1="-78.538" x2="6.15124" y2="184.868" gradientUnits="userSpaceOnUse"><stop stop-color="#00B8F0"/><stop offset=".0001" stop-color="#00B8F0"/><stop offset=".739583" stop-color="#B2EEFC"/></linearGradient><linearGradient id="f" x1="192.234" y1="-191.065" x2="199.321" y2="72.2948" gradientUnits="userSpaceOnUse"><stop stop-color="#00B8F0"/><stop offset=".0001" stop-color="#00B8F0"/><stop offset=".739583" stop-color="#B2EEFC"/></linearGradient><linearGradient id="g" x1="9.64211" y1="-190.077" x2="5.40344" y2="73.3291" gradientUnits="userSpaceOnUse"><stop stop-color="#00B8F0"/><stop offset=".0001" stop-color="#00B8F0"/><stop offset=".739583" stop-color="#B2EEFC"/></linearGradient><linearGradient id="h" x1="214.017" y1="32.002" x2="214.017" y2="212.836" gradientUnits="userSpaceOnUse"><stop stop-color="#6FC7A1"/><stop offset="1" stop-color="#DBFBDF"/></linearGradient><linearGradient id="i" x1="214.017" y1="32.002" x2="214.017" y2="212.836" gradientUnits="userSpaceOnUse"><stop stop-color="#6FC7A1"/><stop offset="1" stop-color="#DBFBDF"/></linearGradient><linearGradient id="j" x1="214.025" y1="162.876" x2="214.025" y2="281.451" gradientUnits="userSpaceOnUse"><stop stop-color="#19C6C8"/><stop offset="1" stop-color="#6FC7A1"/></linearGradient><linearGradient id="k" x1="15.1194" y1="283.763" x2="15.1194" y2="297.994" gradientUnits="userSpaceOnUse"><stop stop-color="#1792C7"/><stop offset="1" stop-color="#00B8F0"/></linearGradient><linearGradient id="l" x1="414.881" y1="58.1372" x2="414.881" y2="72.3688" gradientUnits="userSpaceOnUse"><stop stop-color="#1792C7"/><stop offset="1" stop-color="#00B8F0"/></linearGradient><linearGradient id="m" x1="63.3201" y1="307.421" x2="63.3201" y2="311.054" gradientUnits="userSpaceOnUse"><stop stop-color="#1792C7"/><stop offset="1" stop-color="#00B8F0"/></linearGradient><linearGradient id="n" x1="101.99" y1="107.964" x2="101.99" y2="111.597" gradientUnits="userSpaceOnUse"><stop stop-color="#1792C7"/><stop offset="1" stop-color="#00B8F0"/></linearGradient><linearGradient id="o" x1="384.454" y1="204.927" x2="384.454" y2="208.56" gradientUnits="userSpaceOnUse"><stop stop-color="#1792C7"/><stop offset="1" stop-color="#00B8F0"/></linearGradient><linearGradient id="p" x1="409.562" y1="120.595" x2="409.562" y2="124.227" gradientUnits="userSpaceOnUse"><stop stop-color="#1792C7"/><stop offset="1" stop-color="#00B8F0"/></linearGradient></defs></svg>