<svg width="412" height="411" fill="none" xmlns="http://www.w3.org/2000/svg"><circle cx="129.421" cy="245.406" r="2.751" fill="#FFDB5B"/><circle cx="320.96" cy="98.504" r="2.751" fill="#FFDB5B"/><circle cx="172.583" cy="279.107" r="1.834" fill="#FFDB5B"/><circle cx="219.028" cy="218.376" r="1.834" fill="#FFDB5B"/><circle cx="146.348" cy="188.91" r="6.5" fill="#FDC97C"/><circle cx="193.216" cy="184.507" r="5.544" fill="#FDC97C"/><circle cx="159.693" cy="180.438" r="3.25" fill="#FDC97C"/><circle cx="132.697" cy="181.424" r="2.264" fill="#FDC97C"/><circle cx="178.897" cy="194.484" r="2.324" fill="#FDC97C"/><circle cx="177.153" cy="184.507" r="4.069" fill="#FDC97C"/><circle cx="165.952" cy="191.253" r="4.509" fill="#FDC97C"/><ellipse cx="366.447" cy="84.5" rx="21.589" ry="38.335" transform="rotate(-133.688 366.447 84.5)" fill="url(#a)"/><ellipse cx="297.44" cy="116.396" rx="65" ry="115.421" fill="url(#b)"/><mask id="d" style="mask-type:alpha" maskUnits="userSpaceOnUse" x="232" y="0" width="131" height="232"><ellipse cx="297.44" cy="116.396" rx="65" ry="115.421" fill="url(#c)"/></mask><g mask="url(#d)"><path d="M297.855-6.683c-24.5 24.166-64.1 99.4-26.5 207" stroke="url(#e)"/><path d="M299.213-6.683c24.5 24.166 64.1 99.4 26.5 207" stroke="url(#f)"/><path stroke="url(#g)" d="M298.356-6.683v199.864"/></g><path d="m256.856 17.317 1.057 12.169 11.067-5.17-10.01 7 10.01 7-11.067-5.169-1.057 12.17-1.057-12.17-11.068 5.17 10.011-7-10.011-7 11.068 5.169 1.057-12.17ZM337.356 98.59l1.057 12.17 11.067-5.169-10.01 7 10.01 7-11.067-5.17-1.057 12.17-1.057-12.17-11.068 5.17 10.011-7-10.011-7 11.068 5.169 1.057-12.17ZM383.726 67.715l.803 9.24 8.402-3.925-7.6 5.315 7.6 5.314-8.402-3.924-.803 9.24-.803-9.24-8.402 3.924 7.6-5.314-7.6-5.315 8.402 3.925.803-9.24ZM278.606 9.044l.585 6.736 6.126-2.861-5.541 3.875 5.541 3.875-6.126-2.862-.585 6.737-.586-6.737-6.126 2.862 5.541-3.875-5.541-3.875 6.126 2.861.586-6.736Z" fill="#3E464F"/><path d="M209.139 264.531c-1.827-6.127 2.763-12.285 9.156-12.285h159.243c6.098 0 10.635 5.635 9.335 11.592l-25.332 116.091a9.554 9.554 0 0 1-9.335 7.517h-99.308a9.554 9.554 0 0 1-9.157-6.825l-34.602-116.09Z" fill="url(#h)"/><path d="M183.844 181.721c0-5.277 4.277-9.555 9.554-9.555h208.084a9.555 9.555 0 0 1 9.555 9.555v75.013a9.555 9.555 0 0 1-9.555 9.555H193.398c-5.277 0-9.554-4.278-9.554-9.555v-75.013Z" fill="#B2EEFC"/><path d="M326.197 217.684c-4.185.517-10.616 2.428-12.332 6.878a12.455 12.455 0 0 0 2.567 12.444 3.601 3.601 0 0 0 4.185.948l.907-.46a3.57 3.57 0 0 0 1.192-5.437 3.567 3.567 0 0 0-1.736-1.175c-.837-1.981 0-3.516 2.623-4.339 2.455-.739 5.496-1.283 7.491.753a14.039 14.039 0 0 1 1.939 16.002c-5.134 9.305-22.446 11.634-30.286 4.854-3.279-2.79-6.711 2.107-4.716 5.148 2.177 3.306 7.91 5.315 11.621 6.25 5.441 1.395 10.463.097 15.68-1.521 10.268-3.167 18.136-11.397 17.62-22.53-.293-8.607-7.157-19.014-16.755-17.815Z" fill="url(#i)"/><path d="m78.395 352.223 8.607 43.902c0 8.008 4.674 14.439 10.282 14.397l17.703-.167c5.58 0 10.1-6.571 10.03-14.565l5.72-44.055-52.342.488Z" fill="url(#j)"/><path d="m199.848 351.107 8.607 43.916c0 7.994 4.674 14.439 10.282 14.383l17.703-.167c5.58 0 10.1-6.571 10.03-14.564l5.72-44.042-52.342.474Z" fill="url(#k)"/><path d="M54.065 127.746s9.06 29.826 7.354 51.949c-21.965 19.222-36.31 44.47-39.05 72.39-2.583.174-5.31.106-8.063-.347 0 0-8.37-7.855-13.95.613l.488 53.11c5.58 8.37 13.95.363 13.95.363 6.543-1.2 12.968-.213 17.681 1.035 21.544 43.765 73.611 74.335 134.157 73.781 79.35-.725 143.174-54.658 142.574-120.462-.544-65.805-65.414-118.593-144.751-117.84-21.01.199-40.933 4.125-58.859 11.011l.1-.046s-8.203-25.948-51.63-25.557Z" fill="url(#l)"/><path d="M73.777 226.334a9.249 9.249 0 0 1 7.966 4.422 9.29 9.29 0 1 0-16.043.447 9.28 9.28 0 0 1 8.077-4.869Z" fill="#3E464F"/><path d="M206.07 171.843a7.508 7.508 0 0 1-9.124 4.422 110.917 110.917 0 0 0-61.564.572 7.518 7.518 0 0 1-9.207-4.268c-1.395-3.586.921-7.799 5.218-9.082a124.9 124.9 0 0 1 69.292-.628c4.324 1.2 6.696 5.371 5.385 8.984Z" fill="#B4597D"/><path d="M133.067 169.095a118.909 118.909 0 0 1 66.041-.6 7.167 7.167 0 0 1 5.329 5.873 6.578 6.578 0 0 0 1.633-2.525c1.311-3.613-1.061-7.784-5.385-8.984a124.9 124.9 0 0 0-69.292.628c-4.283 1.283-6.585 5.496-5.218 9.082a6.8 6.8 0 0 0 1.674 2.511 7.217 7.217 0 0 1 5.218-5.985Z" fill="#E16E9B"/><path d="M89.918 272.831c3.585 0 3.543-5.58 0-5.58-3.544 0-3.53 5.58 0 5.58ZM68.616 257.36c3.599 0 3.543-5.58 0-5.58-3.544 0-3.53 5.58 0 5.58ZM85.83 252.198c3.6 0 3.544-5.58 0-5.58-3.543 0-3.529 5.58 0 5.58ZM59.603 246.59a1.394 1.394 0 0 0 1.395-1.395 1.397 1.397 0 0 0-1.395-1.395 1.397 1.397 0 0 0-1.395 1.395 1.393 1.393 0 0 0 1.395 1.395ZM64.528 266.874v.544a1.393 1.393 0 0 0 1.395 1.395 1.394 1.394 0 0 0 1.395-1.395v-.558a1.393 1.393 0 0 0-1.395-1.395 1.394 1.394 0 0 0-1.395 1.395v.014ZM77.809 258.392v.488a1.397 1.397 0 0 0 1.395 1.395 1.397 1.397 0 0 0 1.395-1.395v-.418a1.397 1.397 0 0 0-1.395-1.395 1.397 1.397 0 0 0-1.395 1.395v.418a1.397 1.397 0 0 0 1.395 1.395 1.397 1.397 0 0 0 1.395-1.395v-.418a1.397 1.397 0 0 0-1.395-1.395 1.397 1.397 0 0 0-1.395 1.395v-.07ZM72.968 246.185c3.6 0 3.544-5.58 0-5.58-3.543 0-3.53 5.58 0 5.58ZM79.274 265.06h-.558a2.788 2.788 0 0 0-2.79 2.79 2.79 2.79 0 0 0 2.79 2.791h.558a2.788 2.788 0 0 0 2.79-2.791 2.787 2.787 0 0 0-2.79-2.79ZM84.059 240.521c3.585 0 3.543-5.58 0-5.58-3.544 0-3.544 5.58 0 5.58ZM54.763 256.662h.558a1.397 1.397 0 0 0 1.395-1.395 1.393 1.393 0 0 0-1.395-1.395h-.558a1.394 1.394 0 1 0 0 2.79ZM94.828 261.852a1.394 1.394 0 1 0 0-2.788 1.394 1.394 0 0 0 0 2.788ZM95.22 237.955a1.394 1.394 0 0 0 1.394-1.395 1.397 1.397 0 0 0-2.381-.987 1.397 1.397 0 0 0 .986 2.382ZM103.589 245.628a1.396 1.396 0 1 0 0-2.792 1.396 1.396 0 0 0 0 2.792ZM54.763 269.468a1.397 1.397 0 0 0 1.395-1.395 1.395 1.395 0 1 0-1.395 1.395ZM69.913 277.672a1.394 1.394 0 1 0 0-2.788 1.394 1.394 0 0 0 0 2.788ZM85.23 278.411v-1.116a1.393 1.393 0 0 0-1.395-1.395 1.394 1.394 0 0 0-1.395 1.395v1.116a1.393 1.393 0 0 0 1.395 1.395 1.394 1.394 0 0 0 1.396-1.395Z" fill="#DADADA" style="mix-blend-mode:multiply"/><circle cx="164.711" cy="191.253" r="34.278" fill="url(#m)"/><circle cx="164.711" cy="191.253" r="27.505" stroke="#fff" stroke-width="2"/><path d="M156.161 206.035v-4.431h-3.313v-4.016h3.313v-3.229h-3.313v-5.135h3.313v-12.752h9.44c3.809 0 6.584.773 8.323 2.318 1.766 1.546 2.65 3.672 2.65 6.377a9.795 9.795 0 0 1-1.077 4.513c-.718 1.408-1.918 2.539-3.602 3.395-1.656.856-3.92 1.284-6.791 1.284h-2.691v3.229h6.376v4.016h-6.376v4.431h-6.252Zm6.252-16.811h2.07c1.767 0 3.161-.303 4.182-.911 1.049-.607 1.574-1.587 1.574-2.939 0-2.512-1.657-3.768-4.969-3.768h-2.857v7.618Z" fill="#fff"/><path fill-rule="evenodd" clip-rule="evenodd" d="M202.367 175.828a7.508 7.508 0 0 0 3.703-3.985c.758-2.091.284-4.369-1.089-6.15 34.13 4.729 58.076 15.796 58.076 28.695 0 17.2-42.584 31.143-95.114 31.143s-95.115-13.943-95.115-31.143c0-12.437 22.265-23.172 54.455-28.163-1.45 1.832-1.942 4.2-1.108 6.344a7.518 7.518 0 0 0 9.207 4.268 110.917 110.917 0 0 1 61.564-.572 7.503 7.503 0 0 0 5.421-.437Z" fill="url(#n)"/><defs><linearGradient id="a" x1="365.791" y1="78.214" x2="366.447" y2="122.835" gradientUnits="userSpaceOnUse"><stop stop-color="#6FC7A1"/><stop offset="1" stop-color="#DBFBDF"/></linearGradient><linearGradient id="b" x1="297.44" y1=".975" x2="297.44" y2="176.317" gradientUnits="userSpaceOnUse"><stop stop-color="#DBFBDF"/><stop offset="1" stop-color="#6FC7A1"/></linearGradient><linearGradient id="c" x1="297.44" y1=".975" x2="297.44" y2="176.317" gradientUnits="userSpaceOnUse"><stop stop-color="#DBFBDF"/><stop offset="1" stop-color="#6FC7A1"/></linearGradient><linearGradient id="e" x1="276.86" y1="-6.683" x2="276.86" y2="200.317" gradientUnits="userSpaceOnUse"><stop stop-color="#A4E4C8"/><stop offset="1" stop-color="#4FA77F"/></linearGradient><linearGradient id="f" x1="320.208" y1="-6.683" x2="320.208" y2="200.317" gradientUnits="userSpaceOnUse"><stop stop-color="#A4E4C8"/><stop offset="1" stop-color="#4FA77F"/></linearGradient><linearGradient id="g" x1="297.856" y1="-6.683" x2="297.856" y2="176.317" gradientUnits="userSpaceOnUse"><stop stop-color="#A4E4C8"/><stop offset="1" stop-color="#4FA77F"/></linearGradient><linearGradient id="h" x1="297.915" y1="252.246" x2="297.915" y2="387.446" gradientUnits="userSpaceOnUse"><stop stop-color="#00B8F0"/><stop offset="0" stop-color="#00B8F0"/><stop offset=".74" stop-color="#B2EEFC"/></linearGradient><linearGradient id="i" x1="306.706" y1="260.142" x2="342.976" y2="238.866" gradientUnits="userSpaceOnUse"><stop stop-color="#FA9EC2"/><stop offset="1" stop-color="#FFDBEB"/></linearGradient><linearGradient id="j" x1="104.566" y1="351.735" x2="104.566" y2="410.522" gradientUnits="userSpaceOnUse"><stop stop-color="#FA9EC2"/><stop offset="1" stop-color="#FFDBEB"/></linearGradient><linearGradient id="k" x1="226.019" y1="350.633" x2="226.019" y2="409.407" gradientUnits="userSpaceOnUse"><stop stop-color="#FA9EC2"/><stop offset="1" stop-color="#FFDBEB"/></linearGradient><linearGradient id="l" x1="154.783" y1="127.741" x2="154.783" y2="380.648" gradientUnits="userSpaceOnUse"><stop stop-color="#FA9EC2"/><stop offset="1" stop-color="#FFDBEB"/></linearGradient><linearGradient id="m" x1="164.711" y1="156.975" x2="164.711" y2="225.531" gradientUnits="userSpaceOnUse"><stop stop-color="#FFD08A"/><stop offset="1" stop-color="#F2AA3D"/></linearGradient><linearGradient id="n" x1="161.356" y1="140.317" x2="161.356" y2="381.317" gradientUnits="userSpaceOnUse"><stop stop-color="#FA9EC2"/><stop offset="1" stop-color="#FFDBEB"/></linearGradient></defs></svg>