<svg width="354" height="357" fill="none" xmlns="http://www.w3.org/2000/svg"><rect width="74.7336" height="36.9843" rx="3" transform="matrix(.98487 .1721 -.13727 .99037 266.253 153.302)" fill="url(#a)"/><ellipse rx="12.1914" ry="12.2475" transform="matrix(.98479 .17273 -.13678 .99046 299.626 177.581)" fill="#fff"/><rect width="152.325" height="75.3831" rx="3" transform="matrix(.98487 .1721 -.13727 .99037 10.8605 113.455)" fill="url(#b)"/><ellipse rx="24.849" ry="24.9634" transform="matrix(.98479 .17273 -.13678 .99046 78.8829 162.941)" fill="#fff"/><circle cx="208.356" cy="304.284" r="52.3418" fill="url(#c)"/><circle cx="208.356" cy="304.284" r="42.526" stroke="#fff" stroke-width="2"/><path d="M195.3 326.855v-6.765h-5.058v-6.133h5.058v-4.931h-5.058v-7.84h5.058v-19.473h14.415c5.817 0 10.053 1.18 12.708 3.54 2.698 2.361 4.047 5.606 4.047 9.737 0 2.445-.548 4.742-1.644 6.891-1.096 2.15-2.93 3.878-5.501 5.185-2.529 1.306-5.985 1.96-10.369 1.96h-4.109v4.931h9.736v6.133h-9.736v6.765H195.3Zm9.547-25.669h3.161c2.698 0 4.826-.464 6.386-1.391 1.601-.927 2.402-2.424 2.402-4.489 0-3.836-2.529-5.753-7.587-5.753h-4.362v11.633Z" fill="#fff"/><circle cx="86.0652" cy="234.78" r="2.75146" fill="#FFDB5B"/><circle cx="277.604" cy="87.8784" r="2.75146" fill="#FFDB5B"/><circle cx="129.227" cy="268.481" r="1.83431" fill="#FFDB5B"/><circle cx="175.672" cy="207.75" r="1.83431" fill="#FFDB5B"/><circle cx="320.645" cy="58.1038" r="32.5261" fill="#DDF2F9"/><path d="M320.645 41.4995c8.776 0 16.646 1.9831 22.27 5.1133 5.674 3.1581 8.756 7.2822 8.756 11.4909 0 4.2086-3.082 8.3327-8.756 11.4909-5.624 3.1302-13.494 5.1132-22.27 5.1132s-16.646-1.983-22.27-5.1132c-5.674-3.1582-8.756-7.2823-8.756-11.4909 0-4.2087 3.082-8.3328 8.756-11.4909 5.624-3.1302 13.494-5.1133 22.27-5.1133Z" stroke="#fff" stroke-width="3"/><path d="M304.041 58.1038c0 8.7755 1.983 16.6462 5.113 22.2699 3.158 5.6739 7.282 8.7562 11.491 8.7562s8.333-3.0823 11.491-8.7562c3.13-5.6237 5.113-13.4944 5.113-22.2699 0-8.7756-1.983-16.6462-5.113-22.27-3.158-5.6739-7.282-8.7562-11.491-8.7562s-8.333 3.0823-11.491 8.7562c-3.13 5.6238-5.113 13.4944-5.113 22.27Z" stroke="#fff" stroke-width="3"/><circle cx="151.356" cy="90.6299" r="90" fill="url(#d)"/><circle cx="151.356" cy="90.6299" r="73.8416" stroke="#fff" stroke-width="2"/><path d="M128.907 129.44v-11.632h-8.697v-10.545h8.697v-8.4796h-8.697V85.303h8.697V51.8196h24.786c10.002 0 17.285 2.0293 21.851 6.0879 4.639 4.0586 6.958 9.6392 6.958 16.7417 0 4.2036-.942 8.1534-2.827 11.8497-1.884 3.6962-5.037 6.6677-9.458 8.9144-4.348 2.2467-10.291 3.3701-17.828 3.3701h-7.067v8.4796h16.742v10.545h-16.742v11.632h-16.415Zm16.415-44.137h5.436c4.638 0 8.298-.7972 10.98-2.3916 2.754-1.5945 4.131-4.1674 4.131-7.7186 0-6.5953-4.349-9.8929-13.046-9.8929h-7.501V85.303Z" fill="#fff"/><defs><linearGradient id="a" x1="37.3668" y1="0" x2="37.3668" y2="36.9843" gradientUnits="userSpaceOnUse"><stop stop-color="#6FC7A1"/><stop offset="1" stop-color="#DBFBDF"/></linearGradient><linearGradient id="b" x1="76.1626" y1="0" x2="76.1626" y2="75.3831" gradientUnits="userSpaceOnUse"><stop stop-color="#6FC7A1"/><stop offset="1" stop-color="#DBFBDF"/></linearGradient><linearGradient id="c" x1="208.356" y1="251.942" x2="208.356" y2="356.626" gradientUnits="userSpaceOnUse"><stop stop-color="#FFD08A"/><stop offset="1" stop-color="#F2AA3D"/></linearGradient><linearGradient id="d" x1="151.356" y1=".629883" x2="151.356" y2="180.63" gradientUnits="userSpaceOnUse"><stop stop-color="#FFD08A"/><stop offset="1" stop-color="#F2AA3D"/></linearGradient></defs></svg>