<svg width="174" height="160" fill="none" xmlns="http://www.w3.org/2000/svg"><g clip-path="url(#a)"><path d="m82.0249 35.4395 14.7842 5.594L102 155.473-7.99991 106.472 82.0249 35.4395Z" fill="url(#b)"/><path fill-rule="evenodd" clip-rule="evenodd" d="M58.1085 84.6276c-.3089 1.865.116 4.2881 2.3422 7.0951 2.3636 2.9801 2.9121 5.5186 2.5437 7.514-.3653 1.9783-1.6162 3.3293-2.6755 3.9743l-.5199-.855c.8574-.522 1.9066-1.646 2.2121-3.3009.3024-1.6379-.1074-3.8911-2.3439-6.711-2.3737-2.993-2.9072-5.6949-2.5453-7.8799.3585-2.1644 1.5854-3.7579 2.6289-4.5746l.6163.7876c-.8731.6833-1.9463 2.0648-2.2586 3.9504ZM65.0686 84.6276c-.3089 1.865.1159 4.2881 2.3422 7.0951 2.3636 2.9801 2.9121 5.5186 2.5437 7.514-.3653 1.9783-1.6162 3.3293-2.6755 3.9743l-.5199-.855c.8574-.522 1.9065-1.646 2.212-3.3009.3025-1.6379-.1073-3.8911-2.3438-6.711-2.3737-2.993-2.9072-5.6949-2.5453-7.8799.3585-2.1644 1.5854-3.7579 2.6289-4.5746l.6163.7876c-.8732.6833-1.9463 2.0648-2.2586 3.9504ZM72.0284 84.6276c-.3089 1.865.116 4.2881 2.3422 7.0951 2.3636 2.9801 2.9122 5.5186 2.5438 7.514-.3654 1.9783-1.6162 3.3293-2.6755 3.9743l-.52-.855c.8574-.522 1.9066-1.646 2.2121-3.3009.3024-1.6379-.1074-3.8911-2.3438-6.711-2.3738-2.993-2.9073-5.6949-2.5453-7.8799.3585-2.1644 1.5853-3.7579 2.6288-4.5746l.6164.7876c-.8732.6833-1.9464 2.0648-2.2587 3.9504Z" fill="#fff"/><path fill-rule="evenodd" clip-rule="evenodd" d="M51.0421 127.472v-8h-4c-2.2091 0-4 1.791-4 4s1.7909 4 4 4h4Zm4-12h-8c-4.4182 0-8 3.582-8 8s3.5818 8 8 8h8v-16Z" fill="url(#c)"/><path fill-rule="evenodd" clip-rule="evenodd" d="m157.273 92.263-30.97 49.651 3.394 2.117 32.03-51.3497-20.742-53.4105-24.02-5.7438-.93 3.8903 21.98 5.2562 19.258 49.5895Z" fill="#B2EEFC"/><rect x="104.5" y="139.472" width="51.5" height="8" rx="4" fill="#B2EEFC"/><circle cx="89.0505" cy="37.9555" transform="rotate(30 89.0505 37.9555)" fill="#fff" r="8.11419"/><circle cx="139.25" cy="41.4556" r="3.5" fill="#2D3238"/><circle cx="158.684" cy="92.6816" r="3.5" fill="#2D3238"/><path d="M59.0448 24.0936C65.2343 6.95723 84.1437-1.91702 101.28 4.27244c17.136 6.18946 26.011 25.09886 19.821 42.23516l-.648 1.7951c-.655 1.8127-2.655 2.7515-4.468 2.0967L60.4933 30.3565c-1.8128-.6548-2.7516-2.6551-2.0968-4.4679l.6483-1.795Z" fill="url(#d)"/><path d="M51.309 107.472h35.4831v31.129c0 4.9-3.9715 8.871-8.8707 8.871H60.1798c-4.8992 0-8.8708-3.971-8.8708-8.871v-31.129Z" fill="url(#e)"/></g><defs><linearGradient id="b" x1="87" y1="31.5336" x2="51" y2="124.534" gradientUnits="userSpaceOnUse"><stop stop-color="#6FC7A1"/><stop offset="1" stop-color="#fff"/></linearGradient><linearGradient id="c" x1="55.0421" y1="123.472" x2="39.0421" y2="123.472" gradientUnits="userSpaceOnUse"><stop stop-color="#FA9EC2"/><stop offset="1" stop-color="#FFDBEB"/></linearGradient><linearGradient id="d" x1="101.559" y1="4.03345" x2="88.2392" y2="40.378" gradientUnits="userSpaceOnUse"><stop stop-color="#00B8F0"/><stop offset=".0001" stop-color="#00B8F0"/><stop offset="1" stop-color="#B2EEFC"/></linearGradient><linearGradient id="e" x1="69.0506" y1="107.472" x2="69.0506" y2="147.472" gradientUnits="userSpaceOnUse"><stop stop-color="#FA9EC2"/><stop offset="1" stop-color="#FFDBEB"/></linearGradient><clipPath id="a"><path fill="#fff" transform="translate(0 .0654297)" d="M0 0h174v159H0z"/></clipPath></defs></svg>