<svg width="101" height="163" fill="none" xmlns="http://www.w3.org/2000/svg"><path d="M29.2984 11.1297c.2168-.4861.8046-.6732 1.3128-.4179l16.7412 8.4117c.5082.2553.7443.8563.5275 1.3424l-3.2429 7.2689c-.2168.4861-.8046.6732-1.3128.4179L26.583 19.741c-.5082-.2553-.7443-.8563-.5275-1.3424l3.2429-7.2689Z" fill="url(#a)"/><path d="M39.8315 20.7748c-.7417 1.6562-2.7129 2.3115-4.4027 1.4636-1.6898-.8479-2.4584-2.878-1.7167-4.5342.7418-1.6562 2.7129-2.3115 4.4028-1.4636 1.6898.8479 2.4584 2.878 1.7166 4.5342Z" fill="#fff"/><path d="M53.94 31.4386c-.4786-.3185-.6152-.9422-.305-1.393L69.6493 6.76904c.3102-.45081.9496-.55803 1.4282-.23948l11.7014 7.78794c.4786.3186.6152.9423.305 1.3931L67.0696 38.9871c-.3102.4508-.9496.558-1.4282.2395L53.94 31.4386Z" fill="url(#b)"/><path d="M70.7788 19.1045c2.4104 1.6124 3.1323 4.7202 1.6123 6.9414-1.52 2.2212-4.7063 2.7148-7.1168 1.1024-2.4104-1.6124-3.1323-4.7202-1.6123-6.9414 1.52-2.2213 4.7063-2.7148 7.1168-1.1024Z" fill="#fff"/><path d="M94.8922 30.8902c.4683.3291.5864.9551.2636 1.3982l-11.1241 15.272c-.3228.4431-.9641.5355-1.4325.2064l-7.3664-5.1759c-.4684-.3292-.5864-.9552-.2637-1.3983l11.1241-15.272c.3228-.4431.9641-.5355 1.4325-.2064l7.3665 5.176Z" fill="url(#c)"/><path d="M83.319 39.3005c-1.6288-1.1495-2.0642-3.302-.9724-4.8078 1.0917-1.5059 3.2972-1.7948 4.926-.6453s2.0642 3.302.9724 4.8079c-1.0918 1.5058-3.2972 1.7947-4.926.6452Z" fill="#fff"/><path d="M36.9269 61.5318c.4684.3291.5865.9551.2637 1.3982L26.0664 78.202c-.3227.4432-.9641.5356-1.4325.2065l-7.3663-5.176c-.4684-.3291-.5865-.9551-.2637-1.3982l11.1242-15.272c.3227-.4431.9641-.5355 1.4325-.2064l7.3663 5.1759Z" fill="url(#d)"/><path d="M25.3535 69.9421c-1.6288-1.1494-2.0641-3.302-.9724-4.8078 1.0918-1.5059 3.2973-1.7948 4.9261-.6453 1.6287 1.1495 2.0641 3.302.9723 4.8079-1.0917 1.5058-3.2972 1.7947-4.926.6452Z" fill="#fff"/><path d="M20.9226 52.8863c-.5391.2319-1.1324.0077-1.3252-.5006l-2.9735-7.8401c-.1928-.5084.0879-1.1085.6269-1.3404l3.2629-1.4037c.539-.2319 1.1323-.0078 1.3251.5006l2.9735 7.8401c.1928.5083-.0878 1.1084-.6269 1.3403l-3.2628 1.4038Z" fill="url(#e)"/><path d="M20.144 45.9325c.9288-.403 1.9434-.0334 2.2662.8253.3228.8588-.1684 1.8816-1.0972 2.2846-.9288.4029-1.9435.0334-2.2663-.8254-.3228-.8587.1685-1.8816 1.0973-2.2845Z" fill="#fff"/><path d="M67.7995 52.8006c.388-.3977 1.0188-.3989 1.4088-.0028l10.4864 10.6497c.39.3962.3917 1.0397.0036 1.4373l-4.6082 4.7223c-.388.3977-1.0188.3989-1.4089.0028L63.1949 58.9602c-.3901-.3962-.3917-1.0397-.0037-1.4373l4.6083-4.7223Z" fill="url(#f)"/><path d="M73.2766 62.9629c-1.0915 1.1185-2.8418 1.1461-3.9096.0619-1.0677-1.0843-1.0484-2.87.043-3.9885 1.0915-1.1184 2.8419-1.1461 3.9096-.0618 1.0678 1.0843 1.0485 2.87-.043 3.9884Z" fill="#fff"/><path fill-rule="evenodd" clip-rule="evenodd" d="M100.37 44.3829c.239.3972.11.9123-.287 1.1507-2.9134 1.7479-6.3001 2.619-9.6901 3.1734-1.6982.2778-3.4139.4784-5.0829.6662-.1839.0207-.3671.0412-.5497.0617-1.4814.1659-2.9185.3269-4.2937.5298-1.1754.1734-2.3477.3314-3.5137.4885-6.763.9113-13.3154 1.7942-19.0506 5.5018-5.3633 3.4672-10.1116 9.634-12.0974 15.7718-1.365 4.2192-.3945 7.4364 1.6198 11.4058.2096.413.0446.9178-.3684 1.1274-.4131.2096-.9178.0447-1.1274-.3684-2.0962-4.1307-3.2851-7.8433-1.7199-12.6811 2.1046-6.5051 7.0949-12.9872 12.7827-16.6642 6.0773-3.9287 13.0525-4.8627 19.8025-5.7666 1.1509-.1541 2.2953-.3073 3.4276-.4744 1.4062-.2075 2.8741-.3719 4.3511-.5373.1831-.0205.3663-.041.5496-.0616 1.6687-.1878 3.3471-.3844 4.9996-.6547 3.3115-.5417 6.4532-1.3698 9.0977-2.9565.3972-.2383.9122-.1095 1.1502.2877Z" fill="#FFDBEB"/><path fill-rule="evenodd" clip-rule="evenodd" d="M41.5751 9.65629c.3275-.32753.8586-.32753 1.1861 0C47.9747 14.8699 52.7911 22.118 53.6672 29.7108c1.0529 9.1255-1.4902 17.7816-3.9668 26.2115-.3833 1.3045-.7649 2.6036-1.1314 3.8982-.3464 1.2233-.723 2.4317-1.0979 3.6347-.7315 2.3472-1.4564 4.6732-1.9367 7.0468-.717 3.5431-.8437 7.0261.4262 10.4652.1604.4345-.0618.9168-.4963 1.0773-.4345.1604-.9168-.0618-1.0773-.4963-1.418-3.8405-1.2473-7.6695-.4967-11.3789.4966-2.4537 1.2674-4.9296 2.0142-7.3287.3679-1.1816.7299-2.3446 1.0505-3.477.3744-1.3224.7604-2.6386 1.1452-3.9511 2.4788-8.4532 4.9115-16.7491 3.9007-25.5095-.8152-7.0645-5.3463-13.9811-10.4258-19.0606-.3275-.3276-.3275-.85859 0-1.18611Z" fill="#FFDBEB"/><path fill-rule="evenodd" clip-rule="evenodd" d="M9.10686 48.5726c.41429-.2071.91804-.0392 1.12524.3751.1595.319.5981.6652 1.3223 1.0151.4835.2337.9724.4164 1.4397.591.2189.0818.4331.1618.6399.2445 2.6415 1.0566 4.9477 1.7588 7.736 2.2927.8102.1551 1.6433.3029 2.4895.4529 2.5551.4531 5.229.9272 7.7493 1.6902 3.3819 1.0238 6.6034 2.5958 9.1016 5.4316 2.5555 2.9009 3.875 5.7269 4.4562 8.7512.5758 2.9959.4182 6.1475.091 9.6643-.0429.4612-.4515.8003-.9127.7574-.4612-.0429-.8003-.4516-.7574-.9128.3259-3.5031.4592-6.4487-.0681-9.1923-.5218-2.7152-1.6996-5.271-4.0676-7.959-2.2163-2.5158-5.1131-3.9615-8.329-4.935-2.4163-.7315-4.9477-1.1805-7.4776-1.6294-.8652-.1535-1.7304-.3069-2.5906-.4717-2.9042-.5561-5.3133-1.2906-8.0436-2.3827-.1434-.0574-.3184-.1229-.5132-.1958-.4951-.1853-1.1178-.4184-1.6733-.6868-.76-.3673-1.6636-.9171-2.09271-1.7753-.20714-.4143-.03922-.918.37507-1.1252Z" fill="#FFDBEB"/><path d="M9.76919 115.159c-.70533-2.367 1.06721-4.745 3.53641-4.745H74.807c2.355 0 4.1074 2.176 3.6053 4.477l-9.7834 44.836c-.3699 1.695-1.8705 2.903-3.6054 2.903H26.6697c-1.6321 0-3.0703-1.072-3.5365-2.636L9.76919 115.159Z" fill="url(#g)"/><path d="M0 83.1765c0-2.038 1.65216-3.6902 3.6902-3.6902h80.3644c2.038 0 3.6902 1.6522 3.6902 3.6902v28.9715c0 2.038-1.6522 3.69-3.6902 3.69H3.6902c-2.03804 0-3.6902-1.652-3.6902-3.69V83.1765Z" fill="#B2EEFC"/><path d="M39.51 4.53294c1.8607-1.57028 4.7033-1.40324 6.3492.37309 1.6458 1.77633 1.4716 4.48929-.3891 6.05957-1.8606 1.5703-4.7032 1.4032-6.3491-.3731-1.6458-1.77632-1.4717-4.48928.389-6.05956Z" fill="url(#h)"/><mask id="i" style="mask-type:alpha" maskUnits="userSpaceOnUse" x="38" y="3" width="10" height="10"><path d="M39.9678 4.9349c1.834-1.54795 4.5633-1.46152 6.0961.19307 1.5328 1.65458 1.2887 4.25075-.5453 5.79873-1.834 1.5479-4.5633 1.4615-6.0961-.1931-1.5328-1.65457-1.2887-4.25074.5453-5.7987Z" fill="#C4C4C4"/></mask><g mask="url(#i)"><path d="m38.083 5.3867.0051-1.97791c.0332-.4918.3814-.8954.9517-.78581l9.4922.06745c.3272.02436.5149.02882.694.22928l-4.488 3.52471-5.7515-.17835c-.451.02405-.9367-.38757-.9035-.87937Z" fill="url(#j)"/><path d="m44.5356 12.9219 2.0211.3874c.5088.0663.9901-.1812.9913-.7395l1.8135-8.94314c.04-.31266.0727-.49015-.0965-.69834l-4.4899 3.52309-.9585 5.44619c-.114.4194.2101.958.719 1.0243Z" fill="url(#k)"/><path d="m34.581 8.14207.0052-1.97791c.0332-.4918.3814-.8954.9517-.78581l9.4921.06745c.3272.02436.515.02882.694.22928l-4.488 3.52471-5.7515-.17835c-.4509.02405-.9367-.38757-.9035-.87937Z" fill="url(#l)"/><path d="m41.0335 15.6775 2.0211.3874c.5088.0663.9901-.1812.9913-.7394l1.8135-8.94323c.04-.31266.0727-.49015-.0965-.69833L41.273 9.20703l-.9584 5.44617c-.114.4194.21.958.7189 1.0243Z" fill="url(#m)"/><path d="m31.212 10.7929.0052-1.97786c.0332-.4918.3814-.8954.9517-.78581l9.4921.06745c.3272.02436.5149.02882.694.22928l-4.488 3.52474-5.7515-.1784c-.451.0241-.9367-.3876-.9035-.8794Z" fill="url(#n)"/><path d="m37.6646 18.3284 2.0211.3874c.5088.0663.9901-.1812.9913-.7395l1.8135-8.94315c.04-.31266.0727-.49015-.0965-.69833l-4.4899 3.52308-.9584 5.4462c-.114.4194.21.958.7189 1.0243Z" fill="url(#o)"/></g><path d="M32.8404 48.8638c1.8607-1.5703 4.7033-1.4033 6.3491.373 1.6458 1.7764 1.4717 4.4893-.389 6.0596-1.8607 1.5703-4.7033 1.4033-6.3492-.3731-1.6458-1.7763-1.4716-4.4893.3891-6.0595Z" fill="url(#p)"/><mask id="q" style="mask-type:alpha" maskUnits="userSpaceOnUse" x="31" y="48" width="10" height="9"><path d="M33.2981 49.2662c1.834-1.548 4.5633-1.4615 6.0961.1931 1.5329 1.6545 1.2887 4.2507-.5453 5.7987-1.834 1.5479-4.5633 1.4615-6.0961-.1931s-1.2887-4.2507.5453-5.7987Z" fill="#C4C4C4"/></mask><g mask="url(#q)"><path d="m31.4134 49.7178.0052-1.978c.0332-.4918.3814-.8954.9517-.7858l9.4921.0675c.3272.0243.515.0288.694.2293l-4.488 3.5247-5.7515-.1784c-.451.0241-.9367-.3875-.9035-.8793Z" fill="url(#r)"/><path d="m37.866 57.2532 2.0211.3874c.5089.0663.9901-.1812.9913-.7395l1.8136-8.9431c.04-.3127.0726-.4902-.0966-.6984l-4.4898 3.5231-.9585 5.4462c-.114.4194.21.958.7189 1.0243Z" fill="url(#s)"/><path d="m27.9115 52.4731.0051-1.9779c.0332-.4918.3814-.8954.9517-.7858l9.4922.0675c.3272.0243.5149.0288.6939.2292l-4.488 3.5247-5.7514-.1783c-.451.024-.9367-.3876-.9035-.8794Z" fill="url(#t)"/><path d="m34.3639 60.0088 2.0211.3874c.5089.0663.9901-.1812.9913-.7395l1.8136-8.9431c.04-.3127.0727-.4902-.0965-.6984l-4.4899 3.5231-.9585 5.4462c-.114.4194.2101.958.7189 1.0243Z" fill="url(#u)"/><path d="m24.5425 55.124.0051-1.9779c.0332-.4918.3814-.8954.9517-.7858l9.4921.0674c.3273.0244.515.0288.694.2293l-4.488 3.5247-5.7515-.1783c-.4509.024-.9366-.3876-.9034-.8794Z" fill="url(#v)"/><path d="m30.9951 62.6597 2.021.3874c.5089.0663.9901-.1812.9913-.7395l1.8136-8.9431c.04-.3127.0727-.4902-.0965-.6984l-4.4899 3.5231-.9585 5.4461c-.114.4195.2101.9581.719 1.0244Z" fill="url(#w)"/></g><path d="M62.6632 42.3955c1.8607-1.5703 4.7033-1.4033 6.3492.3731 1.6458 1.7763 1.4716 4.4893-.389 6.0595-1.8607 1.5703-4.7033 1.4033-6.3492-.373-1.6458-1.7764-1.4717-4.4893.389-6.0596Z" fill="url(#x)"/><mask id="y" style="mask-type:alpha" maskUnits="userSpaceOnUse" x="61" y="41" width="10" height="9"><path d="M63.1208 42.7976c1.834-1.5479 4.5634-1.4615 6.0962.1931 1.5328 1.6545 1.2887 4.2507-.5453 5.7986-1.834 1.5479-4.5633 1.4615-6.0962-.1931-1.5328-1.6545-1.2886-4.2506.5453-5.7986Z" fill="#C4C4C4"/></mask><g mask="url(#y)"><path d="m61.2359 43.2493.0051-1.9779c.0332-.4918.3814-.8954.9517-.7858l9.4921.0673c.3272.0244.515.0288.694.2293l-4.488 3.5247-5.7515-.1783c-.4509.0241-.9366-.3875-.9034-.8793Z" fill="url(#z)"/><path d="m67.6887 50.7851 2.0212.3874c.5089.0663.9902-.1813.9914-.7396l1.8141-8.9439c.04-.3127.0727-.4902-.0965-.6984l-4.4903 3.5235-.9588 5.4466c-.114.4195.21.9581.7189 1.0244Z" fill="url(#A)"/><path d="m57.734 46.0047.0052-1.9779c.0332-.4918.3814-.8954.9517-.7859l9.4921.0674c.3272.0244.515.0288.694.2293l-4.488 3.5247-5.7515-.1783c-.451.0241-.9367-.3875-.9035-.8793Z" fill="url(#B)"/><path d="m64.1867 53.5403 2.0212.3874c.5089.0662.9902-.1813.9914-.7396l1.814-8.9435c.04-.3127.0727-.4902-.0965-.6984l-4.4903 3.5234-.9588 5.4464c-.114.4194.2101.958.719 1.0243Z" fill="url(#C)"/><path d="m54.3649 48.6555.0052-1.9779c.0332-.4918.3814-.8954.9517-.7858l9.4921.0674c.3272.0243.5149.0288.6939.2293l-4.488 3.5247-5.7514-.1783c-.451.0241-.9367-.3876-.9035-.8794Z" fill="url(#D)"/><path d="m60.8175 56.1913 2.0212.3873c.5089.0663.9902-.1812.9914-.7395l1.8141-8.9437c.04-.3127.0727-.4902-.0965-.6984l-4.4904 3.5234-.9587 5.4465c-.114.4195.21.9581.7189 1.0244Z" fill="url(#E)"/></g><defs><linearGradient id="a" x1="38.9818" y1="14.9177" x2="34.5476" y2="23.7428" gradientUnits="userSpaceOnUse"><stop stop-color="#6FC7A1"/><stop offset="1" stop-color="#DBFBDF"/></linearGradient><linearGradient id="b" x1="61.6421" y1="18.4073" x2="74.9359" y2="27.5535" gradientUnits="userSpaceOnUse"><stop stop-color="#6FC7A1"/><stop offset="1" stop-color="#DBFBDF"/></linearGradient><linearGradient id="c" x1="89.5938" y1="39.9244" x2="80.6423" y2="33.4041" gradientUnits="userSpaceOnUse"><stop stop-color="#6FC7A1"/><stop offset="1" stop-color="#DBFBDF"/></linearGradient><linearGradient id="d" x1="31.6285" y1="70.566" x2="22.6771" y2="64.0458" gradientUnits="userSpaceOnUse"><stop stop-color="#6FC7A1"/><stop offset="1" stop-color="#DBFBDF"/></linearGradient><linearGradient id="e" x1="18.1107" y1="48.4656" x2="23.4137" y2="46.4544" gradientUnits="userSpaceOnUse"><stop stop-color="#6FC7A1"/><stop offset="1" stop-color="#DBFBDF"/></linearGradient><linearGradient id="f" x1="74.4515" y1="58.1227" x2="68.3175" y2="64.1626" gradientUnits="userSpaceOnUse"><stop stop-color="#6FC7A1"/><stop offset="1" stop-color="#DBFBDF"/></linearGradient><linearGradient id="g" x1="44.0558" y1="110.414" x2="44.0558" y2="162.63" gradientUnits="userSpaceOnUse"><stop stop-color="#00B8F0"/><stop offset=".0001" stop-color="#00B8F0"/><stop offset=".739583" stop-color="#B2EEFC"/></linearGradient><linearGradient id="h" x1="39.121" y1="10.5925" x2="45.5816" y2="4.6065" gradientUnits="userSpaceOnUse"><stop stop-color="#1792C7"/><stop offset="1" stop-color="#00B8F0"/></linearGradient><linearGradient id="j" x1="39.0323" y1="6.78636" x2="46.6239" y2=".00623609" gradientUnits="userSpaceOnUse"><stop stop-color="#00B8F0"/><stop offset=".0001" stop-color="#00B8F0"/><stop offset=".739583" stop-color="#B2EEFC"/></linearGradient><linearGradient id="k" x1="43.2944" y1="11.7513" x2="51.2079" y2="5.31848" gradientUnits="userSpaceOnUse"><stop stop-color="#00B8F0"/><stop offset=".0001" stop-color="#00B8F0"/><stop offset=".739583" stop-color="#B2EEFC"/></linearGradient><linearGradient id="l" x1="35.5303" y1="9.54173" x2="43.122" y2="2.76163" gradientUnits="userSpaceOnUse"><stop stop-color="#00B8F0"/><stop offset=".0001" stop-color="#00B8F0"/><stop offset=".739583" stop-color="#B2EEFC"/></linearGradient><linearGradient id="m" x1="39.7923" y1="14.5069" x2="47.7058" y2="8.07412" gradientUnits="userSpaceOnUse"><stop stop-color="#00B8F0"/><stop offset=".0001" stop-color="#00B8F0"/><stop offset=".739583" stop-color="#B2EEFC"/></linearGradient><linearGradient id="n" x1="32.1613" y1="12.1926" x2="39.753" y2="5.41251" gradientUnits="userSpaceOnUse"><stop stop-color="#00B8F0"/><stop offset=".0001" stop-color="#00B8F0"/><stop offset=".739583" stop-color="#B2EEFC"/></linearGradient><linearGradient id="o" x1="36.4234" y1="17.1578" x2="44.3369" y2="10.725" gradientUnits="userSpaceOnUse"><stop stop-color="#00B8F0"/><stop offset=".0001" stop-color="#00B8F0"/><stop offset=".739583" stop-color="#B2EEFC"/></linearGradient><linearGradient id="p" x1="32.4513" y1="54.9233" x2="38.912" y2="48.9373" gradientUnits="userSpaceOnUse"><stop stop-color="#1792C7"/><stop offset="1" stop-color="#00B8F0"/></linearGradient><linearGradient id="r" x1="32.3627" y1="51.1174" x2="39.9544" y2="44.3373" gradientUnits="userSpaceOnUse"><stop stop-color="#00B8F0"/><stop offset=".0001" stop-color="#00B8F0"/><stop offset=".739583" stop-color="#B2EEFC"/></linearGradient><linearGradient id="s" x1="36.6248" y1="56.0826" x2="44.5383" y2="49.6498" gradientUnits="userSpaceOnUse"><stop stop-color="#00B8F0"/><stop offset=".0001" stop-color="#00B8F0"/><stop offset=".739583" stop-color="#B2EEFC"/></linearGradient><linearGradient id="t" x1="28.8608" y1="53.8728" x2="36.4524" y2="47.0927" gradientUnits="userSpaceOnUse"><stop stop-color="#00B8F0"/><stop offset=".0001" stop-color="#00B8F0"/><stop offset=".739583" stop-color="#B2EEFC"/></linearGradient><linearGradient id="u" x1="33.1227" y1="58.8382" x2="41.0363" y2="52.4054" gradientUnits="userSpaceOnUse"><stop stop-color="#00B8F0"/><stop offset=".0001" stop-color="#00B8F0"/><stop offset=".739583" stop-color="#B2EEFC"/></linearGradient><linearGradient id="v" x1="25.4917" y1="56.5237" x2="33.0834" y2="49.7436" gradientUnits="userSpaceOnUse"><stop stop-color="#00B8F0"/><stop offset=".0001" stop-color="#00B8F0"/><stop offset=".739583" stop-color="#B2EEFC"/></linearGradient><linearGradient id="w" x1="29.7538" y1="61.4891" x2="37.6674" y2="55.0563" gradientUnits="userSpaceOnUse"><stop stop-color="#00B8F0"/><stop offset=".0001" stop-color="#00B8F0"/><stop offset=".739583" stop-color="#B2EEFC"/></linearGradient><linearGradient id="x" x1="62.2742" y1="48.4551" x2="68.7348" y2="42.469" gradientUnits="userSpaceOnUse"><stop stop-color="#1792C7"/><stop offset="1" stop-color="#00B8F0"/></linearGradient><linearGradient id="z" x1="62.1851" y1="44.6489" x2="69.7769" y2="37.8688" gradientUnits="userSpaceOnUse"><stop stop-color="#00B8F0"/><stop offset=".0001" stop-color="#00B8F0"/><stop offset=".739583" stop-color="#B2EEFC"/></linearGradient><linearGradient id="A" x1="66.4475" y1="49.6144" x2="74.3619" y2="43.181" gradientUnits="userSpaceOnUse"><stop stop-color="#00B8F0"/><stop offset=".0001" stop-color="#00B8F0"/><stop offset=".739583" stop-color="#B2EEFC"/></linearGradient><linearGradient id="B" x1="58.6833" y1="47.4043" x2="66.275" y2="40.6242" gradientUnits="userSpaceOnUse"><stop stop-color="#00B8F0"/><stop offset=".0001" stop-color="#00B8F0"/><stop offset=".739583" stop-color="#B2EEFC"/></linearGradient><linearGradient id="C" x1="62.9454" y1="52.3697" x2="70.8596" y2="45.9362" gradientUnits="userSpaceOnUse"><stop stop-color="#00B8F0"/><stop offset=".0001" stop-color="#00B8F0"/><stop offset=".739583" stop-color="#B2EEFC"/></linearGradient><linearGradient id="D" x1="55.3142" y1="50.0552" x2="62.9059" y2="43.275" gradientUnits="userSpaceOnUse"><stop stop-color="#00B8F0"/><stop offset=".0001" stop-color="#00B8F0"/><stop offset=".739583" stop-color="#B2EEFC"/></linearGradient><linearGradient id="E" x1="59.5763" y1="55.0206" x2="67.4906" y2="48.5872" gradientUnits="userSpaceOnUse"><stop stop-color="#00B8F0"/><stop offset=".0001" stop-color="#00B8F0"/><stop offset=".739583" stop-color="#B2EEFC"/></linearGradient></defs></svg>