<svg width="141" height="160" fill="none" xmlns="http://www.w3.org/2000/svg"><path d="M72.0047 30.5586c.5207-1.7851 2.9826-1.9557 3.7445-.2594l9.6377 21.4594c.5701 1.2693-.2981 2.7184-1.6862 2.8146l-16.2246 1.1239c-1.3881.0962-2.4478-1.2194-2.0582-2.5552l6.5868-22.5833Z" fill="url(#a)"/><path fill-rule="evenodd" clip-rule="evenodd" d="M74.9007 42.5137c13.2506 0 24.1498 9.5255 25.4663 21.734l6.818 22.1577c5.262.6745 9.318 4.9419 9.318 10.1056 0 5.632-4.826 10.199-10.779 10.199-4.938 0-9.101-3.143-10.3766-7.4291l-10.7345-3.9782-30.0914 49.2113c-1.048 1.714-3.6858.985-3.7062-1.023l-.7183-70.7421c-.5193-1.9231-.7954-3.9383-.7954-6.0144 0-13.3768 11.4611-24.2208 25.5991-24.2208Z" fill="url(#b)"/><path d="M117.367 18.4301c1.995-1.4003 4.285 1.3088 2.572 3.0428l-32.5862 32.98c-.8261.836-2.1916.783-2.9502-.1147l-5.3631-6.3455c-.7587-.8976-.5835-2.2528.3785-2.928l37.949-26.6346Z" fill="url(#c)"/><path d="M51.7899 31.9182c-.0064-1.7951 2.1722-2.689 3.4285-1.4068L75.059 50.7601c.9934 1.0139.6439 2.7112-.6693 3.25l-19.7401 8.1c-1.3133.5388-2.7542-.4237-2.7592-1.8432l-.1005-28.3487Z" fill="url(#d)"/><ellipse cx="79.217" cy="47.7049" rx="11.7925" ry="10.7252" fill="url(#e)"/><ellipse cx="29.0653" cy="131.565" rx="29.0652" ry="27.5003" fill="url(#f)"/><ellipse cx="37.2015" cy="73.1802" rx="26.925" ry="25.4753" fill="url(#g)"/><ellipse cx="42.218" cy="100.308" rx="15.9125" ry="15.0557" fill="url(#h)"/><ellipse cx="80.5693" cy="69.0979" rx="2.96818" ry="3.15529" fill="#3E464F"/><ellipse cx="106.396" cy="93.8084" rx="1.27406" ry="2.10184" fill="#3E464F"/><defs><linearGradient id="a" x1="73.5249" y1="25.3466" x2="76.2762" y2="65.0647" gradientUnits="userSpaceOnUse"><stop stop-color="#1792C7"/><stop offset="1" stop-color="#00B8F0"/></linearGradient><linearGradient id="b" x1="82.9022" y1="42.5137" x2="82.9022" y2="145.474" gradientUnits="userSpaceOnUse"><stop stop-color="#00B8F0"/><stop offset=".0001" stop-color="#00B8F0"/><stop offset=".739583" stop-color="#B2EEFC"/></linearGradient><linearGradient id="c" x1="135.564" y1="5.6586" x2="63.7734" y2="66.3344" gradientUnits="userSpaceOnUse"><stop stop-color="#FA9EC2"/><stop offset="1" stop-color="#FFDBEB"/></linearGradient><linearGradient id="d" x1="51.7725" y1="26.9945" x2="68.7687" y2="68.4153" gradientUnits="userSpaceOnUse"><stop stop-color="#00B8F0"/><stop offset=".0001" stop-color="#00B8F0"/><stop offset=".739583" stop-color="#B2EEFC"/></linearGradient><linearGradient id="e" x1="79.217" y1="36.9797" x2="79.217" y2="58.4301" gradientUnits="userSpaceOnUse"><stop stop-color="#6FC7A1"/><stop offset="1" stop-color="#DBFBDF"/></linearGradient><linearGradient id="f" x1="29.0653" y1="104.065" x2="29.0653" y2="159.065" gradientUnits="userSpaceOnUse"><stop stop-color="#6FC7A1"/><stop offset="1" stop-color="#DBFBDF"/></linearGradient><linearGradient id="g" x1="37.2015" y1="47.7048" x2="37.2015" y2="98.6555" gradientUnits="userSpaceOnUse"><stop stop-color="#6FC7A1"/><stop offset="1" stop-color="#DBFBDF"/></linearGradient><linearGradient id="h" x1="42.218" y1="85.2522" x2="42.218" y2="115.364" gradientUnits="userSpaceOnUse"><stop stop-color="#6FC7A1"/><stop offset="1" stop-color="#DBFBDF"/></linearGradient></defs></svg>