<svg width="48" height="33" fill="none" xmlns="http://www.w3.org/2000/svg"><path d="m38.7368 5.75576-4.6954-4.13571c-1.1048-1.10286-3.0382-.827146-3.8668.27571L16.9171 17.6115l-7.73357-6.6172c-1.10479-.8271-3.03818-.8271-3.86678.2757l-4.14298 4.9629c-1.1047942 1.1029-.828595 3.0329.2762 3.86L15.8123 32.2243c.5524.5514 1.381.8272 2.2096.5515.8821-.2936 2.0053-1.5726 2.7303-2.4577L38.7368 9.61576c1.381-1.10286 1.1048-3.03286 0-3.86Z" fill="url(#a)"/><path d="M46.6864 5.81358 41.991 1.67787c-1.1048-1.102855-3.0382-.827141-3.8668.27572L24.8667 17.6693l-7.7336-6.6171c-1.1048-.8272-3.0382-.8272-3.8668.5514l-4.14295 4.6871c-.8286 1.1029-.8286 3.0329.2762 3.86L23.7619 32.2821c.5524.5515 1.425.8125 2.2096.5515.7846-.2611 1.3771-1.1169 2.2176-2.0819L46.6864 9.67358c1.381-1.10286 1.1048-2.75714 0-3.86Z" fill="url(#b)"/><defs><linearGradient id="a" x1="20.0711" y1=".917969" x2="20.0711" y2="32.8839" gradientUnits="userSpaceOnUse"><stop stop-color="#1792C7"/><stop offset="1" stop-color="#00B8F0"/></linearGradient><linearGradient id="b" x1="28.0771" y1=".97583" x2="28.0771" y2="32.9355" gradientUnits="userSpaceOnUse"><stop stop-color="#00B8F0"/><stop offset=".0001" stop-color="#00B8F0"/><stop offset=".739583" stop-color="#B2EEFC"/></linearGradient></defs></svg>